STARTFONT 2.1
COMMENT
COMMENT Converted from OpenType font "Firecracker-Regular.ttf" by "otf2bdf 3.0".
COMMENT
FONT -FreeType-Firecracker-Medium-R-Normal--55-400-100-100-P-136-ISO10646-1
SIZE 40 100 100
FONTBOUNDINGBOX 38 59 -3 -10
STARTPROPERTIES 19
FOUNDRY "FreeType"
FAMILY_NAME "Firecracker"
WEIGHT_NAME "Medium"
SLANT "R"
SETWIDTH_NAME "Normal"
ADD_STYLE_NAME ""
PIXEL_SIZE 55
POINT_SIZE 400
RESOLUTION_X 100
RESOLUTION_Y 100
SPACING "P"
AVERAGE_WIDTH 136
CHARSET_REGISTRY "ISO10646"
CHARSET_ENCODING "1"
FONT_ASCENT 42
FONT_DESCENT 14
COPYRIGHT "Firecracker © Igor Ovsyannykov 2023  All Rights Reserved"
_OTF_FONTFILE "Firecracker-Regular.ttf"
_OTF_PSNAME "Firecracker-Regular"
ENDPROPERTIES
CHARS 234
STARTCHAR 0000
ENCODING 0
SWIDTH 0 0
DWIDTH 0 0
BBX 0 0 0 0
BITMAP
ENDCHAR
STARTCHAR 000D
ENCODING 13
SWIDTH 252 0
DWIDTH 14 0
BBX 0 0 0 0
BITMAP
ENDCHAR
STARTCHAR 0020
ENCODING 32
SWIDTH 198 0
DWIDTH 11 0
BBX 0 0 0 0
BITMAP
ENDCHAR
STARTCHAR 0021
ENCODING 33
SWIDTH 126 0
DWIDTH 7 0
BBX 5 39 1 0
BITMAP
F8
F8
F8
F8
F8
78
78
78
78
78
78
78
78
78
78
78
78
78
78
78
78
70
70
70
70
70
70
70
70
70
70
00
00
00
70
F8
F8
F8
70
ENDCHAR
STARTCHAR 0022
ENCODING 34
SWIDTH 216 0
DWIDTH 12 0
BBX 10 11 1 28
BITMAP
F3C0
F3C0
F1C0
F1C0
71C0
71C0
61C0
6180
6180
6180
6180
ENDCHAR
STARTCHAR 0023
ENCODING 35
SWIDTH 486 0
DWIDTH 27 0
BBX 24 39 1 0
BITMAP
00F078
01E078
01E078
01E078
01E078
01E078
01E0F0
01E0F0
01E0F0
01E0F0
01C0F0
03C0F0
03C0F0
7FFFFF
7FFFFF
7FFFFF
7FFFFF
03C1E0
03C1E0
03C1E0
03C1E0
FFFFFE
FFFFFE
FFFFFE
FFFFFE
0781E0
0781C0
0783C0
0783C0
0783C0
0783C0
0703C0
0F03C0
0F03C0
0F03C0
0F03C0
0F03C0
0F0780
0F0780
ENDCHAR
STARTCHAR 0024
ENCODING 36
SWIDTH 216 0
DWIDTH 12 0
BBX 11 45 0 -3
BITMAP
0F00
0F00
0F00
0F00
0F60
0FE0
1FE0
3FE0
3FE0
7E00
7C00
F800
F000
F000
F000
F000
F000
F800
7800
7C00
3C00
3E00
1F00
1F00
0F80
07C0
07C0
03E0
03E0
01E0
01E0
01E0
01E0
01E0
01E0
03E0
07E0
7FC0
7FC0
7F80
7F00
7F00
0F00
0F00
0F00
ENDCHAR
STARTCHAR 0025
ENCODING 37
SWIDTH 468 0
DWIDTH 26 0
BBX 24 39 1 0
BITMAP
1E0380
3F0380
3F0780
770780
738700
738700
F38700
F38700
F38F00
F38F00
F38E00
F38E00
F38E00
F39E00
F39E38
F39C7C
F39CFE
F39CEE
F3BDEE
73BDCE
73BDCF
7739CF
3F39CF
3F39CF
1E79CF
0079CF
0071CF
0071CF
0071CF
00F1CF
00F1CF
00E1CF
00E1CF
00E1CE
01E1EE
01E0EE
01E0FE
01C07C
01C038
ENDCHAR
STARTCHAR 0026
ENCODING 38
SWIDTH 378 0
DWIDTH 21 0
BBX 21 40 0 -1
BITMAP
07E000
0FF800
1FFC00
3FFC00
3E3E00
7C1E00
7C1E00
781E00
781E00
780000
780000
780000
780000
7C0000
7C0000
3FF800
1FF800
0FF800
1FF800
3F0000
3E0078
7C01F8
7C03F8
7803F8
7807C0
F80780
F80780
F80F00
F80F00
F80F00
F80F00
F80F00
780F00
780F00
7C0F00
7E1F00
3FFF00
1FFE00
0FFC00
07F000
ENDCHAR
STARTCHAR 0027
ENCODING 39
SWIDTH 108 0
DWIDTH 6 0
BBX 4 11 1 28
BITMAP
F0
F0
F0
F0
70
70
60
60
60
60
60
ENDCHAR
STARTCHAR 0028
ENCODING 40
SWIDTH 180 0
DWIDTH 10 0
BBX 7 39 1 0
BITMAP
06
0E
1E
3E
3C
7C
78
78
78
F8
F0
F0
F0
F0
F0
F0
F0
F0
F0
F0
F0
F0
F0
F0
F0
F0
F0
F0
F0
F8
78
78
78
7C
3C
3E
1E
0E
06
ENDCHAR
STARTCHAR 0029
ENCODING 41
SWIDTH 180 0
DWIDTH 10 0
BBX 8 39 1 0
BITMAP
C0
F0
F0
F8
7C
3C
3C
1E
1E
1E
1E
1E
1F
1F
1F
1F
1F
1F
1F
1F
1F
1F
1F
1F
1F
1F
1F
1E
1E
1E
1E
1E
3C
3C
7C
F8
F0
F0
C0
ENDCHAR
STARTCHAR 002A
ENCODING 42
SWIDTH 378 0
DWIDTH 21 0
BBX 14 14 4 25
BITMAP
0700
2720
7770
7FF0
3FE0
1FC0
FFFC
FFFC
1FC0
3FE0
7FF0
7770
2720
0700
ENDCHAR
STARTCHAR 002B
ENCODING 43
SWIDTH 270 0
DWIDTH 15 0
BBX 14 14 1 13
BITMAP
0780
0780
0780
0780
0780
FFFC
FFFC
FFFC
FFFC
0780
0780
0780
0780
0780
ENDCHAR
STARTCHAR 002C
ENCODING 44
SWIDTH 108 0
DWIDTH 6 0
BBX 5 9 0 -4
BITMAP
70
F8
F8
F8
78
30
30
60
60
ENDCHAR
STARTCHAR 002D
ENCODING 45
SWIDTH 198 0
DWIDTH 11 0
BBX 10 4 1 18
BITMAP
FFC0
FFC0
FFC0
FFC0
ENDCHAR
STARTCHAR 002E
ENCODING 46
SWIDTH 126 0
DWIDTH 7 0
BBX 5 5 1 0
BITMAP
70
F8
F8
F8
70
ENDCHAR
STARTCHAR 002F
ENCODING 47
SWIDTH 234 0
DWIDTH 13 0
BBX 11 39 1 0
BITMAP
01E0
01E0
01E0
01E0
01C0
03C0
03C0
03C0
03C0
03C0
0780
0780
0780
0780
0780
0F00
0F00
0F00
0F00
0F00
0F00
1E00
1E00
1E00
1E00
1E00
3C00
3C00
3C00
3C00
3C00
3800
7800
7800
7800
7800
7800
F000
F000
ENDCHAR
STARTCHAR 0030
ENCODING 48
SWIDTH 270 0
DWIDTH 15 0
BBX 14 39 1 0
BITMAP
0F80
1FC0
3FE0
3FE0
7DF0
78F0
78F0
F878
F078
F078
F078
F078
F078
F078
F07C
F07C
F07C
F07C
F07C
F07C
F07C
F07C
F07C
F07C
F07C
F078
F078
F078
F078
F078
F078
F878
78F8
78F0
7DF0
3FE0
3FE0
1FC0
0F80
ENDCHAR
STARTCHAR 0031
ENCODING 49
SWIDTH 162 0
DWIDTH 9 0
BBX 8 39 0 0
BITMAP
07
1F
3F
FF
FF
FF
FF
CF
0F
0F
0F
0F
0F
0F
0F
0F
0F
0F
0F
0F
0F
0F
0F
0F
0F
0F
0F
0F
0F
0F
0F
0F
0F
0F
0F
0F
0F
0F
0F
ENDCHAR
STARTCHAR 0032
ENCODING 50
SWIDTH 288 0
DWIDTH 16 0
BBX 14 39 1 0
BITMAP
0FC0
1FE0
3FF0
3FF8
7CF8
787C
F87C
F07C
F03C
F03C
007C
007C
007C
0078
0078
00F8
00F0
00F0
01F0
01E0
01E0
03E0
03C0
07C0
0780
0F80
0F00
1F00
1F00
1E00
3E00
3C00
7C00
7800
F800
FFFC
FFFC
FFFC
FFFC
ENDCHAR
STARTCHAR 0033
ENCODING 51
SWIDTH 288 0
DWIDTH 16 0
BBX 14 39 1 0
BITMAP
0F80
1FE0
3FF0
3FF0
7CF8
7878
F878
F07C
F07C
F07C
007C
007C
007C
007C
0078
00F8
0FF0
0FF0
0FE0
0FF0
00F8
00F8
0078
F07C
F07C
F03C
F03C
F03C
F03C
F03C
F03C
F07C
F07C
F87C
78F8
7FF8
3FF0
1FE0
0FC0
ENDCHAR
STARTCHAR 0034
ENCODING 52
SWIDTH 324 0
DWIDTH 18 0
BBX 16 39 1 0
BITMAP
007C
00FC
00FC
00FC
00FC
01FC
01FC
01FC
03FC
03FC
03FC
07FC
07BC
07BC
07BC
0F3C
0F3C
0F3C
1F3C
1E3C
1E3C
3E3C
3C3C
3C3C
3C3C
7C3C
783C
783C
FFFF
FFFF
FFFF
FFFF
003C
003C
003C
003C
003C
003C
003C
ENDCHAR
STARTCHAR 0035
ENCODING 53
SWIDTH 306 0
DWIDTH 17 0
BBX 15 39 1 0
BITMAP
7FF8
7FF8
7FF8
7FF8
7800
7800
7800
7800
7800
7800
7800
79E0
7BF0
7FF8
7FF8
7EFC
7C7C
787C
783C
783C
703E
003E
003E
003E
F83E
F83E
F83E
F83E
F83E
F83C
783C
783C
783C
7C7C
3C78
3FF8
1FF0
0FE0
07C0
ENDCHAR
STARTCHAR 0036
ENCODING 54
SWIDTH 288 0
DWIDTH 16 0
BBX 14 39 1 0
BITMAP
07C0
0F80
0F00
0F00
1F00
1E00
1E00
3E00
3C00
3C00
7C00
7C00
7C00
7800
7BE0
FFF0
FFF8
F8F8
F878
F07C
F07C
F03C
F03C
F03C
F03C
F03C
F03C
F03C
F03C
F03C
F03C
F07C
F87C
F878
7CF8
7FF0
3FF0
1FE0
0F80
ENDCHAR
STARTCHAR 0037
ENCODING 55
SWIDTH 234 0
DWIDTH 13 0
BBX 13 39 0 0
BITMAP
FFF8
FFF8
FFF0
FFF0
FFF0
01F0
01F0
01F0
01F0
01E0
01E0
03E0
03E0
03E0
03E0
03C0
03C0
03C0
07C0
07C0
07C0
07C0
0780
0780
0780
0F80
0F80
0F80
0F80
0F00
0F00
0F00
1F00
1F00
1F00
1E00
1E00
1E00
3E00
ENDCHAR
STARTCHAR 0038
ENCODING 56
SWIDTH 306 0
DWIDTH 17 0
BBX 15 39 1 0
BITMAP
07C0
1FF0
3FF0
3FF8
7C78
7C7C
787C
783C
783C
F83C
F83C
F83C
F83C
783C
783C
7C78
7C78
3FF0
1FE0
1FF0
3EF8
7C78
787C
783C
F83C
F83E
F83E
F83E
F83E
F83E
F83C
F83C
783C
7C7C
7C78
3FF8
3FF0
1FE0
07C0
ENDCHAR
STARTCHAR 0039
ENCODING 57
SWIDTH 288 0
DWIDTH 16 0
BBX 14 39 1 0
BITMAP
0F80
1FE0
3FF0
7FF0
7CF8
F878
F87C
F07C
F03C
F03C
F03C
F03C
F03C
F03C
F03C
F03C
F03C
F03C
F07C
F07C
F87C
FC7C
7FF8
7FF8
1E78
00F8
00F8
00F0
00F0
01F0
01F0
01E0
01E0
03E0
03C0
03C0
07C0
0780
0F80
ENDCHAR
STARTCHAR 003A
ENCODING 58
SWIDTH 126 0
DWIDTH 7 0
BBX 5 17 1 11
BITMAP
70
F8
F8
F8
70
00
00
00
00
00
00
00
70
F8
F8
F8
70
ENDCHAR
STARTCHAR 003B
ENCODING 59
SWIDTH 144 0
DWIDTH 8 0
BBX 5 21 1 -4
BITMAP
70
78
F8
78
78
00
00
00
00
00
00
00
70
78
F8
78
78
30
30
70
60
ENDCHAR
STARTCHAR 003C
ENCODING 60
SWIDTH 198 0
DWIDTH 11 0
BBX 9 19 1 10
BITMAP
0080
0180
0380
0780
0F00
3E00
7C00
F800
F000
C000
F000
F800
7C00
3E00
0F00
0780
0380
0180
0080
ENDCHAR
STARTCHAR 003D
ENCODING 61
SWIDTH 198 0
DWIDTH 11 0
BBX 10 9 1 15
BITMAP
FFC0
FFC0
FFC0
FFC0
0000
FFC0
FFC0
FFC0
FFC0
ENDCHAR
STARTCHAR 003E
ENCODING 62
SWIDTH 198 0
DWIDTH 11 0
BBX 9 19 1 10
BITMAP
8000
8000
E000
F000
F800
7C00
1F00
0F80
0780
0380
0780
0F80
1F00
7C00
F800
F000
E000
8000
8000
ENDCHAR
STARTCHAR 003F
ENCODING 63
SWIDTH 288 0
DWIDTH 16 0
BBX 13 39 2 0
BITMAP
0F80
1FC0
3FE0
7FF0
78F0
F0F0
F078
F078
F078
F078
F0F8
F0F0
00F0
00F0
01F0
01E0
01E0
03C0
03C0
07C0
0780
0F80
0F00
1E00
1E00
1E00
1E00
1E00
1E00
1E00
1E00
0000
0000
0000
0E00
1F00
1F00
1F00
0E00
ENDCHAR
STARTCHAR 0040
ENCODING 64
SWIDTH 504 0
DWIDTH 28 0
BBX 26 37 1 -8
BITMAP
007F8000
01FFF000
03FFF800
07C0FC00
0F803E00
1F001F00
1E000F00
3C000780
38000780
783FC380
787FC380
70FFC380
70E3C3C0
F1E3C3C0
F1C3C3C0
F1C3C3C0
F1C3C3C0
E1C3C1C0
E1C3C3C0
F1C3C3C0
F1C3C3C0
F1C3C3C0
F1E3C380
71E7E780
70FFFF00
787E7F00
783C3E00
38000000
3C000000
3C000000
1E000000
1F001000
0F807800
07C0FC00
03FFF000
01FFE000
007F0000
ENDCHAR
STARTCHAR 0041
ENCODING 65
SWIDTH 288 0
DWIDTH 16 0
BBX 16 39 0 0
BITMAP
07E0
07E0
07E0
07E0
07F0
07F0
07F0
0FF0
0FF0
0F70
0F70
0F70
0E78
0E78
1E78
1E78
1E78
1E78
1E78
1E38
1E3C
1E3C
3E3C
3C3C
3C3C
3C3C
3C3C
3C3E
3FFE
3FFE
7FFE
7FFE
7C1E
781E
781E
781F
781F
781F
F81F
ENDCHAR
STARTCHAR 0042
ENCODING 66
SWIDTH 288 0
DWIDTH 16 0
BBX 14 39 2 0
BITMAP
FF00
FF80
FFE0
FFE0
F1F0
F0F0
F0F0
F0F0
F0F0
F0F0
F0F0
F0F0
F1E0
F3E0
FFC0
FF80
FFC0
FFE0
F3E0
F1F0
F0F0
F0F8
F078
F078
F078
F07C
F07C
F07C
F07C
F07C
F078
F078
F0F8
F0F8
F1F0
FFF0
FFE0
FFC0
FF00
ENDCHAR
STARTCHAR 0043
ENCODING 67
SWIDTH 288 0
DWIDTH 16 0
BBX 14 39 1 0
BITMAP
0780
1FE0
1FF0
3FF0
3CF8
7878
7878
787C
F87C
F07C
F07C
F07C
F07C
F07C
F000
F000
F000
F000
F000
F000
F000
F000
F000
F000
F000
F07C
F07C
F07C
F07C
F07C
F07C
787C
7878
7878
3CF8
3FF0
1FF0
1FE0
07C0
ENDCHAR
STARTCHAR 0044
ENCODING 68
SWIDTH 288 0
DWIDTH 16 0
BBX 14 39 2 0
BITMAP
FE00
FF80
FFC0
FFC0
FFE0
F3F0
F1F0
F0F0
F0F8
F078
F078
F07C
F07C
F03C
F03C
F03C
F03C
F03C
F03C
F03C
F03C
F03C
F03C
F03C
F03C
F07C
F07C
F078
F078
F0F8
F0F8
F1F0
F1F0
F3E0
FFE0
FFC0
FF80
FF00
FE00
ENDCHAR
STARTCHAR 0045
ENCODING 69
SWIDTH 234 0
DWIDTH 13 0
BBX 11 39 1 0
BITMAP
FFE0
FFE0
FFE0
FFE0
F800
F800
F800
F800
F800
F800
F800
F800
F800
F800
F800
F800
F800
F800
F800
FFE0
FFE0
FFE0
FFE0
F800
F800
F800
F800
F800
F800
F800
F800
F800
F800
F800
F800
FFE0
FFE0
FFE0
FFE0
ENDCHAR
STARTCHAR 0046
ENCODING 70
SWIDTH 234 0
DWIDTH 13 0
BBX 11 39 1 0
BITMAP
FFE0
FFE0
FFE0
FFE0
F800
F800
F800
F800
F800
F800
F800
F800
F800
FFE0
FFE0
FFE0
FFE0
F800
F800
F800
F800
F800
F800
F800
F800
F800
F800
F800
F800
F800
F800
F800
F800
F800
F800
F800
F800
F800
F800
ENDCHAR
STARTCHAR 0047
ENCODING 71
SWIDTH 288 0
DWIDTH 16 0
BBX 14 39 1 0
BITMAP
0780
1FE0
1FF0
3FF0
3CF8
7878
7878
7878
F07C
F07C
F07C
F07C
F07C
F07C
F07C
F000
F000
F000
F000
F1FC
F1FC
F1FC
F1FC
F03C
F03C
F03C
F03C
F03C
F03C
F03C
F03C
F03C
F07C
787C
787C
7CFC
3FFC
1FBC
0F3C
ENDCHAR
STARTCHAR 0048
ENCODING 72
SWIDTH 288 0
DWIDTH 16 0
BBX 14 39 1 0
BITMAP
F83C
F83C
F83C
F83C
F83C
F83C
F83C
F83C
F83C
F83C
F83C
F83C
F83C
F83C
F83C
F83C
F83C
F83C
F83C
FFFC
FFFC
FFFC
FFFC
F83C
F83C
F83C
F83C
F83C
F83C
F83C
F83C
F83C
F83C
F83C
F83C
F83C
F83C
F83C
F83C
ENDCHAR
STARTCHAR 0049
ENCODING 73
SWIDTH 126 0
DWIDTH 7 0
BBX 5 39 1 0
BITMAP
F8
F8
F8
F8
F8
F8
F8
F8
F8
F8
F8
F8
F8
F8
F8
F8
F8
F8
F8
F8
F8
F8
F8
F8
F8
F8
F8
F8
F8
F8
F8
F8
F8
F8
F8
F8
F8
F8
F8
ENDCHAR
STARTCHAR 004A
ENCODING 74
SWIDTH 162 0
DWIDTH 9 0
BBX 7 39 1 0
BITMAP
3E
3E
3E
3E
3E
3E
3E
3E
3E
3E
3E
3E
3E
3E
3E
3E
3E
3E
3E
3E
3E
3E
3E
3E
3E
3E
3E
3E
3E
3E
3E
3E
3C
3C
7C
F8
F8
F0
C0
ENDCHAR
STARTCHAR 004B
ENCODING 75
SWIDTH 270 0
DWIDTH 15 0
BBX 14 39 1 0
BITMAP
F878
F8F8
F8F8
F8F0
F8F0
F8F0
F9F0
F9E0
F9E0
F9E0
FBE0
FBC0
FBC0
FBC0
FFC0
FF80
FF80
FF80
FF80
FF80
FF80
FF80
FF80
FFC0
FFC0
FBC0
FBC0
FBE0
FBE0
F9E0
F9E0
F9F0
F9F0
F8F0
F8F0
F8F8
F8F8
F878
F87C
ENDCHAR
STARTCHAR 004C
ENCODING 76
SWIDTH 216 0
DWIDTH 12 0
BBX 10 39 1 0
BITMAP
F800
F800
F800
F800
F800
F800
F800
F800
F800
F800
F800
F800
F800
F800
F800
F800
F800
F800
F800
F800
F800
F800
F800
F800
F800
F800
F800
F800
F800
F800
F800
F800
F800
F800
F800
FFC0
FFC0
FFC0
FFC0
ENDCHAR
STARTCHAR 004D
ENCODING 77
SWIDTH 432 0
DWIDTH 24 0
BBX 22 39 1 0
BITMAP
F80078
F80078
F800F8
F800F8
FC00F8
FC00F8
FC01F8
FC01F8
FE01F8
FE01F8
FE03F8
FE03F8
FE03F8
FF03F8
FF03F8
FF07F8
FF07F8
FF87F8
FF8778
FF8F7C
FB8F7C
F38F7C
F3CF7C
F3CE7C
F1DE7C
F1DE7C
F1FE7C
F1FC7C
F0FC7C
F0FC7C
F0FC7C
F0F87C
F0F87C
F0787C
F0787C
F0707C
F0007C
F0007C
F0007C
ENDCHAR
STARTCHAR 004E
ENCODING 78
SWIDTH 306 0
DWIDTH 17 0
BBX 15 39 1 0
BITMAP
F01E
F81E
F81E
F81E
FC1E
FC1E
FC1E
FC1E
FE1E
FE1E
FE1E
FE1E
FF1E
FF1E
FF1E
FF1E
FF9E
FF9E
FF9E
FBDE
FBDE
FBDE
FBDE
F9FE
F9FE
F9FE
F8FE
F8FE
F8FE
F8FE
F87E
F87E
F87E
F87E
F83E
F83E
F83E
F81E
F81E
ENDCHAR
STARTCHAR 004F
ENCODING 79
SWIDTH 288 0
DWIDTH 16 0
BBX 14 39 1 0
BITMAP
0780
1FC0
1FE0
3FF0
3CF0
78F8
7878
7878
F878
F07C
F07C
F03C
F03C
F03C
F03C
F03C
F03C
F03C
F03C
F03C
F03C
F03C
F03C
F03C
F03C
F03C
F03C
F03C
F07C
F07C
F878
7878
7878
78F8
3CF0
3FF0
1FE0
1FC0
0780
ENDCHAR
STARTCHAR 0050
ENCODING 80
SWIDTH 288 0
DWIDTH 16 0
BBX 13 39 1 0
BITMAP
FF00
FFC0
FFC0
FFE0
F9F0
F8F0
F8F0
F8F8
F878
F878
F878
F878
F878
F878
F878
F878
F878
F878
F878
F878
F878
F8F0
F8F0
F8F0
F9E0
FBE0
FFC0
FF80
FF80
FE00
FC00
F800
F800
F800
F800
F800
F800
F800
F800
ENDCHAR
STARTCHAR 0051
ENCODING 81
SWIDTH 288 0
DWIDTH 16 0
BBX 14 42 1 -3
BITMAP
0780
1FC0
1FE0
3FF0
3CF0
78F8
7878
7878
F078
F07C
F07C
F03C
F03C
F03C
F03C
F03C
F03C
F03C
F03C
F03C
F03C
F03C
F03C
F03C
F03C
F03C
F03C
F03C
F07C
F17C
FFF8
7FF8
7BF8
7BF8
3DF0
3FF0
1FE0
1FF0
07F0
0078
0078
0070
ENDCHAR
STARTCHAR 0052
ENCODING 82
SWIDTH 270 0
DWIDTH 15 0
BBX 14 39 1 0
BITMAP
FF00
FFC0
FFE0
FFE0
F9F0
F8F0
F8F8
F878
F878
F878
F878
F878
F878
F878
F878
F878
F878
F870
F8F0
F8F0
F9F0
F9E0
FBC0
FFC0
FFC0
FFC0
FFC0
FBE0
F9E0
F9E0
F9E0
F9F0
F8F0
F8F0
F8F0
F8F8
F878
F878
F87C
ENDCHAR
STARTCHAR 0053
ENCODING 83
SWIDTH 216 0
DWIDTH 12 0
BBX 11 40 0 -1
BITMAP
01E0
0FE0
1FE0
3FE0
7F00
7C00
F800
F000
F000
F000
F000
F000
F800
7800
7C00
7C00
3E00
3E00
1F00
1F00
0F80
0F80
07C0
07C0
03E0
03E0
01E0
01E0
01E0
01E0
01E0
01E0
03E0
03E0
1FE0
7FC0
7F80
7F00
7C00
8000
ENDCHAR
STARTCHAR 0054
ENCODING 84
SWIDTH 288 0
DWIDTH 16 0
BBX 15 39 0 0
BITMAP
FFFE
FFFE
FFFE
FFFE
03C0
03C0
03C0
03C0
03C0
03C0
03C0
03C0
03C0
03C0
03C0
03C0
03C0
03C0
03C0
03C0
03C0
03C0
03C0
03C0
03C0
03C0
03C0
03C0
03C0
03C0
03C0
03C0
03C0
03C0
03C0
03C0
03C0
03C0
03C0
ENDCHAR
STARTCHAR 0055
ENCODING 85
SWIDTH 306 0
DWIDTH 17 0
BBX 15 39 1 0
BITMAP
F83E
F83E
F83E
F83E
F83E
F83E
F83E
F83E
F83E
F83E
F83E
F83E
F83E
F83E
F83E
F83E
F83E
F83E
F83E
F83E
F83E
F83E
F83E
F83E
F83E
F83E
F83E
F83E
F83E
F83E
F83C
783C
787C
7C7C
7CFC
3FF8
3FF0
1FF0
07C0
ENDCHAR
STARTCHAR 0056
ENCODING 86
SWIDTH 306 0
DWIDTH 17 0
BBX 16 39 0 0
BITMAP
F80F
780F
781F
781F
781F
781E
7C1E
7C1E
3C1E
3C1E
3C1E
3C3E
3C3E
3C3C
3C3C
3E3C
1E3C
1E3C
1E3C
1E3C
1E78
1E78
1E78
0E78
0F78
0F78
0F78
0F70
0F70
0FF0
07F0
07F0
07F0
07F0
07F0
07E0
07E0
03E0
03E0
ENDCHAR
STARTCHAR 0057
ENCODING 87
SWIDTH 450 0
DWIDTH 25 0
BBX 24 39 0 0
BITMAP
F8000F
F8000F
F8000F
F83C0F
783C0F
783E0F
783E0F
783E0F
783E1F
787E1F
787F1F
787F1F
787F1F
787F1F
78F71F
7CF71E
7CF79E
7CF79E
7CE79E
7CE79E
3DE39E
3DE39E
3DE3DE
3DE3DE
3DC3DE
3DC3DE
3FC1DE
3FC1DE
3FC1FE
3FC1FE
3F81FE
3F80FC
3F80FC
3F80FC
3F80FC
3F00FC
1F00FC
1F007C
1F007C
ENDCHAR
STARTCHAR 0058
ENCODING 88
SWIDTH 288 0
DWIDTH 16 0
BBX 14 39 1 0
BITMAP
F07C
F07C
F878
F878
7878
7878
78F8
78F8
7CF0
7CF0
3CF0
3CF0
3DF0
3DF0
3DF0
3FE0
1FE0
1FE0
1FE0
1FE0
1FE0
1FE0
1FE0
3FE0
3FF0
3DF0
3DF0
3CF0
7CF0
7CF0
7CF8
78F8
7878
7878
F878
F87C
F87C
F07C
F03C
ENDCHAR
STARTCHAR 0059
ENCODING 89
SWIDTH 306 0
DWIDTH 17 0
BBX 16 39 0 0
BITMAP
F80F
780F
781F
781F
7C1E
7C1E
3C1E
3C1E
3C3E
3C3C
3C3C
1E3C
1E3C
1E3C
1E38
1E78
0E78
0F78
0F78
0F70
0F70
07F0
07F0
07F0
07E0
07E0
03E0
03E0
03E0
03E0
03E0
03E0
03E0
03E0
03E0
03E0
03E0
03E0
03E0
ENDCHAR
STARTCHAR 005A
ENCODING 90
SWIDTH 270 0
DWIDTH 15 0
BBX 12 39 2 0
BITMAP
FFF0
FFF0
FFF0
FFE0
01E0
03E0
03E0
03E0
03C0
03C0
07C0
07C0
07C0
0780
0780
0F80
0F80
0F80
0F00
0F00
1F00
1F00
1E00
1E00
1E00
3E00
3E00
3C00
3C00
3C00
7C00
7C00
7800
7800
7800
FFE0
FFE0
FFE0
FFE0
ENDCHAR
STARTCHAR 005B
ENCODING 91
SWIDTH 180 0
DWIDTH 10 0
BBX 8 39 1 0
BITMAP
FF
FF
FF
FF
F8
F8
F8
F8
F8
F8
F8
F8
F8
F8
F8
F8
F8
F8
F8
F8
F8
F8
F8
F8
F8
F8
F8
F8
F8
F8
F8
F8
F8
F8
F8
FF
FF
FF
FF
ENDCHAR
STARTCHAR 005C
ENCODING 92
SWIDTH 234 0
DWIDTH 13 0
BBX 11 39 1 0
BITMAP
F000
F000
7800
7800
7800
7800
7800
3800
3C00
3C00
3C00
3C00
3C00
1E00
1E00
1E00
1E00
1E00
0E00
0F00
0F00
0F00
0F00
0700
0780
0780
0780
0780
0780
03C0
03C0
03C0
03C0
03C0
01C0
01E0
01E0
01E0
01E0
ENDCHAR
STARTCHAR 005D
ENCODING 93
SWIDTH 180 0
DWIDTH 10 0
BBX 8 39 1 0
BITMAP
FF
FF
FF
FF
1F
1F
1F
1F
1F
1F
1F
1F
1F
1F
1F
1F
1F
1F
1F
1F
1F
1F
1F
1F
1F
1F
1F
1F
1F
1F
1F
1F
1F
1F
1F
FF
FF
FF
FF
ENDCHAR
STARTCHAR 005E
ENCODING 94
SWIDTH 270 0
DWIDTH 15 0
BBX 13 9 1 30
BITMAP
0700
0F00
0F80
1DC0
39C0
38E0
78E0
F0F0
F078
ENDCHAR
STARTCHAR 005F
ENCODING 95
SWIDTH 216 0
DWIDTH 12 0
BBX 11 4 1 -4
BITMAP
FFE0
FFE0
FFE0
FFE0
ENDCHAR
STARTCHAR 0060
ENCODING 96
SWIDTH 144 0
DWIDTH 8 0
BBX 6 8 1 27
BITMAP
F8
F8
78
38
3C
1C
1C
0C
ENDCHAR
STARTCHAR 0061
ENCODING 97
SWIDTH 306 0
DWIDTH 17 0
BBX 14 27 1 -1
BITMAP
07C0
0FF0
1FF8
3FF8
3C7C
783C
783C
783C
003C
003C
01FC
07FC
1E3C
3C3C
383C
703C
F03C
F03C
E07C
E07C
E0FC
F0FC
F1BC
FFBC
7F3C
3E3C
1800
ENDCHAR
STARTCHAR 0062
ENCODING 98
SWIDTH 306 0
DWIDTH 17 0
BBX 15 39 1 0
BITMAP
F800
F800
F800
F800
F800
F800
F800
F800
F800
F800
F800
F800
F800
F8F0
F9F8
FBFC
FB7C
FE1C
FE1E
FC1E
FC0E
FC0E
F80E
F80E
F80E
F80E
F80E
F80E
F80E
F81E
F81E
F81E
FC1C
FC1C
FE3C
FE78
FBF8
FBF0
F9E0
ENDCHAR
STARTCHAR 0063
ENCODING 99
SWIDTH 270 0
DWIDTH 15 0
BBX 13 26 1 0
BITMAP
0F80
1FE0
3FE0
3FF0
7CF0
7878
F078
F078
F000
F000
F000
F000
F000
F000
F000
F078
F078
F078
F078
F078
7878
7CF0
3FF0
3FE0
1FE0
0780
ENDCHAR
STARTCHAR 0064
ENCODING 100
SWIDTH 306 0
DWIDTH 17 0
BBX 16 39 0 0
BITMAP
001F
001F
001F
001F
001F
001F
001F
001F
001F
001F
000F
000F
000F
038F
0FEF
0FFF
1F7F
3E3F
3C1F
381F
781F
781F
781F
781F
781F
701F
701F
F01F
781F
781F
781F
783F
783F
7C2F
7C6F
3EEF
3FCF
1FCF
0F8F
ENDCHAR
STARTCHAR 0065
ENCODING 101
SWIDTH 270 0
DWIDTH 15 0
BBX 13 26 1 0
BITMAP
0F80
1FE0
3FF0
3FF0
7CF0
7878
F078
F078
F078
FFF8
FFF8
FFF8
F000
F000
F000
F078
F078
F078
F078
F878
7878
7CF0
3FF0
3FE0
1FC0
0780
ENDCHAR
STARTCHAR 0066
ENCODING 102
SWIDTH 198 0
DWIDTH 11 0
BBX 13 40 -1 0
BITMAP
0018
01F8
03F8
07F8
0FF8
0F80
0F00
1F00
1E00
1E00
1E00
1E00
1E00
1E00
FFF0
FFF0
FFF0
FFF0
1E00
1E00
1E00
1E00
1E00
1E00
1E00
1E00
1E00
1E00
1E00
1E00
1E00
1E00
1E00
1E00
1E00
1E00
1E00
1E00
1E00
1E00
ENDCHAR
STARTCHAR 0067
ENCODING 103
SWIDTH 306 0
DWIDTH 17 0
BBX 15 36 1 -10
BITMAP
063E
1F3E
3FBE
3DBE
78FE
707E
707E
F07E
F03E
E03E
E03E
E03E
E03E
E03E
E03E
E03E
E03E
E07E
E07E
F07E
F0FE
F0FE
79BE
7FBE
3F3E
1E3E
083E
003E
003C
003C
103C
187C
1FFC
3FF8
1FF0
07E0
ENDCHAR
STARTCHAR 0068
ENCODING 104
SWIDTH 306 0
DWIDTH 17 0
BBX 15 39 1 0
BITMAP
F800
F800
F800
F800
F800
F800
F800
F800
F800
F800
F800
F800
F800
F8F0
FBF8
FBF8
FFFC
FE7C
FC7C
FC3C
FC3C
F83C
F83C
F83E
F83E
F83E
F83E
F83E
F83E
F83E
F83E
F83E
F83E
F83E
F83E
F83E
F83E
F83E
F83E
ENDCHAR
STARTCHAR 0069
ENCODING 105
SWIDTH 126 0
DWIDTH 7 0
BBX 5 34 1 0
BITMAP
70
F8
F8
F8
F8
70
00
00
F8
F8
F8
F8
F8
F8
F8
F8
F8
F8
F8
F8
F8
F8
F8
F8
F8
F8
F8
F8
F8
F8
F8
F8
F8
F8
ENDCHAR
STARTCHAR 006A
ENCODING 106
SWIDTH 126 0
DWIDTH 7 0
BBX 9 44 -3 -10
BITMAP
0700
0F80
0F80
0F80
0F80
0700
0000
0000
0F80
0F80
0F80
0F80
0F80
0F80
0F80
0F80
0F80
0F80
0F80
0F80
0F80
0F80
0F80
0F80
0F80
0F80
0F80
0F80
0F80
0F80
0F80
0F80
0F80
0F80
0F80
0F00
0F00
0F00
1F00
3E00
FE00
FC00
F800
E000
ENDCHAR
STARTCHAR 006B
ENCODING 107
SWIDTH 270 0
DWIDTH 15 0
BBX 14 39 1 0
BITMAP
F800
F800
F800
F800
F800
F800
F800
F800
F800
F800
F800
F800
F800
F87C
F878
F8F8
F8F0
F9F0
F9E0
FBE0
FBC0
FFC0
FF80
FF80
FF80
FF80
FF80
FFC0
FFC0
FFC0
F9E0
F9E0
F9F0
F8F0
F8F0
F8F8
F878
F87C
F87C
ENDCHAR
STARTCHAR 006C
ENCODING 108
SWIDTH 126 0
DWIDTH 7 0
BBX 5 39 1 0
BITMAP
F8
F8
F8
F8
F8
F8
F8
F8
F8
F8
F8
F8
F8
F8
F8
F8
F8
F8
F8
F8
F8
F8
F8
F8
F8
F8
F8
F8
F8
F8
F8
F8
F8
F8
F8
F8
F8
F8
F8
ENDCHAR
STARTCHAR 006D
ENCODING 109
SWIDTH 522 0
DWIDTH 29 0
BBX 26 26 1 0
BITMAP
F8F01E00
F9F83F00
F9FC7F80
FBFC7F80
FB3EE7C0
FE1EC7C0
FE1EC3C0
FC1F83C0
FC1F83C0
FC1F83C0
FC1F03C0
F81F03C0
F81F03C0
F81F03C0
F81F03C0
F81F03C0
F81F03C0
F81F03C0
F81F03C0
F81E03C0
F81E03C0
F81E03C0
F81E03C0
F81E03C0
F81E03C0
F81E03C0
ENDCHAR
STARTCHAR 006E
ENCODING 110
SWIDTH 306 0
DWIDTH 17 0
BBX 15 26 1 0
BITMAP
00F0
F9F8
FBF8
FFFC
FE7C
FC7C
FC3C
FC3C
F83C
F83C
F83E
F83E
F83E
F83E
F83E
F83E
F83E
F83E
F83E
F83E
F83E
F83E
F83E
F83E
F83E
F83E
ENDCHAR
STARTCHAR 006F
ENCODING 111
SWIDTH 288 0
DWIDTH 16 0
BBX 14 26 1 0
BITMAP
0780
1FC0
1FE0
3FF0
3CF0
7878
7878
7878
F078
F07C
F07C
F07C
F03C
F03C
F07C
F07C
F07C
F078
7878
7878
7878
3CF0
3FF0
1FE0
0FC0
0780
ENDCHAR
STARTCHAR 0070
ENCODING 112
SWIDTH 306 0
DWIDTH 17 0
BBX 16 36 1 -10
BITMAP
F8F0
F9F8
FBFC
FBFC
FE3E
FE1E
FC1E
FC1E
FC1F
FC0F
F80F
F80F
F80F
F80F
F80F
F80F
F80E
F81E
F81E
F81E
FC1C
FC3C
FE7C
FFF8
FFF0
FBE0
F800
F800
F800
F800
F800
F800
F800
F800
F800
F800
ENDCHAR
STARTCHAR 0071
ENCODING 113
SWIDTH 306 0
DWIDTH 17 0
BBX 15 36 1 -10
BITMAP
0E3E
1F3E
3FBE
3DBE
78FE
707E
707E
F07E
F03E
E03E
E03E
E03E
E03E
E03E
E03E
E03E
E03E
E07E
E07E
F07E
F0FE
F0FE
79BE
7FBE
3F3E
1E3E
003E
003E
003E
003E
003E
003E
003E
003E
003E
003E
ENDCHAR
STARTCHAR 0072
ENCODING 114
SWIDTH 234 0
DWIDTH 13 0
BBX 12 26 1 0
BITMAP
F830
F8F0
F9F0
FBF0
FBC0
FF80
FF00
FE00
FE00
FC00
FC00
FC00
FC00
F800
F800
F800
F800
F800
F800
F800
F800
F800
F800
F800
F800
F800
ENDCHAR
STARTCHAR 0073
ENCODING 115
SWIDTH 252 0
DWIDTH 14 0
BBX 10 26 2 0
BITMAP
07C0
1FC0
7FC0
FFC0
FC00
F000
F000
F000
F000
F000
7800
7C00
3E00
1F00
0F00
0F80
07C0
03C0
03C0
03C0
07C0
1FC0
FFC0
FF80
FE00
F000
ENDCHAR
STARTCHAR 0074
ENCODING 116
SWIDTH 198 0
DWIDTH 11 0
BBX 11 34 0 0
BITMAP
3C00
3C00
3C00
3C00
3C00
3C00
3C00
3C00
FFE0
FFE0
FFE0
FFE0
3C00
3C00
3C00
3C00
3C00
3C00
3C00
3C00
3C00
3C00
3C00
3C00
3C00
3C00
3C00
1E00
1E00
1F80
0FC0
0FC0
07C0
01C0
ENDCHAR
STARTCHAR 0075
ENCODING 117
SWIDTH 306 0
DWIDTH 17 0
BBX 15 26 1 0
BITMAP
F83E
F83E
F83E
F83E
F83E
F83E
F83E
F83E
F83E
F83E
F83E
F83E
F83E
F83E
F83E
F83E
F87E
F87E
F87E
F87E
F8FE
79FE
7FBE
7FBE
3F3E
1E00
ENDCHAR
STARTCHAR 0076
ENCODING 118
SWIDTH 288 0
DWIDTH 16 0
BBX 16 26 0 0
BITMAP
F00F
F81F
781E
781E
781E
781E
3C1C
3C3C
3C3C
3C3C
1C3C
1C38
1E78
1E78
1E78
0E70
0E70
0FF0
0FF0
07F0
07E0
07E0
07E0
07E0
03C0
03C0
ENDCHAR
STARTCHAR 0077
ENCODING 119
SWIDTH 486 0
DWIDTH 27 0
BBX 26 26 0 0
BITMAP
F80003C0
F80003C0
780E03C0
781E03C0
781E07C0
781F0780
7C1F0780
3C3F0780
3C3F0780
3C3B8780
3C3B8F00
3C3B8F00
1E738F00
1E71CF00
1E71CF00
1E71CF00
1EE1DE00
0EE1DE00
0FE0FE00
0FE0FE00
0FE0FE00
0FC0FC00
07C07C00
07C07C00
07C07C00
07807C00
ENDCHAR
STARTCHAR 0078
ENCODING 120
SWIDTH 306 0
DWIDTH 17 0
BBX 17 26 0 0
BITMAP
F80F80
780F00
780F00
3C1E00
3C1E00
1E3C00
1E3C00
1E3C00
0F7800
0F7800
07F000
07F000
03E000
03E000
03E000
07F000
07F000
0F7800
0F7800
1E3C00
1E3C00
3C1E00
3C1E00
781F00
780F00
F80F80
ENDCHAR
STARTCHAR 0079
ENCODING 121
SWIDTH 288 0
DWIDTH 16 0
BBX 14 36 1 -10
BITMAP
F07C
F07C
F07C
F07C
F07C
F07C
F07C
F07C
F07C
F07C
F07C
F07C
F07C
F07C
F07C
F07C
F07C
F07C
F0FC
F0FC
F0FC
F9FC
7FFC
7F7C
3F7C
3E7C
007C
007C
007C
0078
2078
30F8
3FF8
7FF0
3FE0
0FC0
ENDCHAR
STARTCHAR 007A
ENCODING 122
SWIDTH 288 0
DWIDTH 16 0
BBX 15 26 1 0
BITMAP
7FFE
7FFE
7FFC
7FFC
0078
0078
00F8
00F0
01F0
01E0
01E0
03C0
03C0
0780
0780
0F80
0F00
1F00
1E00
1E00
3C00
3C00
7FFC
7FFC
FFFC
FFFC
ENDCHAR
STARTCHAR 007B
ENCODING 123
SWIDTH 198 0
DWIDTH 11 0
BBX 9 39 1 0
BITMAP
0180
0380
0780
0F80
0F00
1F00
1E00
1E00
3E00
3E00
3E00
3E00
3E00
3E00
3C00
3C00
7C00
FC00
F800
F000
F800
7C00
3C00
3C00
3C00
3E00
3E00
3E00
3E00
3E00
1E00
1E00
1E00
1F00
0F00
0F80
0780
0380
0180
ENDCHAR
STARTCHAR 007C
ENCODING 124
SWIDTH 108 0
DWIDTH 6 0
BBX 4 42 1 -1
BITMAP
F0
F0
F0
F0
F0
F0
F0
F0
F0
F0
F0
F0
F0
F0
F0
F0
F0
F0
F0
F0
F0
F0
F0
F0
F0
F0
F0
F0
F0
F0
F0
F0
F0
F0
F0
F0
F0
F0
F0
F0
F0
F0
ENDCHAR
STARTCHAR 007D
ENCODING 125
SWIDTH 198 0
DWIDTH 11 0
BBX 9 39 1 0
BITMAP
C000
E000
F000
F800
7800
7C00
3C00
3C00
3C00
3C00
3E00
3E00
3E00
3E00
3E00
1E00
1F00
1F80
0F80
0F80
0F80
1F00
1E00
1E00
3E00
3E00
3E00
3E00
3C00
3C00
3C00
3C00
3C00
7800
7800
F800
F000
E000
C000
ENDCHAR
STARTCHAR 007E
ENCODING 126
SWIDTH 270 0
DWIDTH 15 0
BBX 14 8 1 16
BITMAP
7C04
FF1C
FFFC
FFFC
FFFC
FFFC
87F8
80F0
ENDCHAR
STARTCHAR 00A1
ENCODING 161
SWIDTH 126 0
DWIDTH 7 0
BBX 5 39 1 -5
BITMAP
70
F8
F8
F8
70
00
00
00
70
70
70
70
70
70
70
70
70
70
70
78
78
78
78
78
78
78
78
78
78
78
78
78
78
F8
F8
F8
F8
F8
F8
ENDCHAR
STARTCHAR 00A2
ENCODING 162
SWIDTH 270 0
DWIDTH 15 0
BBX 13 33 1 -4
BITMAP
0780
0780
0780
0780
1FE0
3FE0
3FF0
7CF0
7878
F078
F078
F000
F000
F000
F000
F000
F000
F000
F000
F078
F078
F078
F078
7078
7878
7CF0
3FF0
1FE0
1FC0
0780
0780
0780
0780
ENDCHAR
STARTCHAR 00A3
ENCODING 163
SWIDTH 342 0
DWIDTH 19 0
BBX 17 39 1 0
BITMAP
007F80
01FF80
03FF80
07FF80
07E000
0F8000
0F8000
0F0000
1F0000
1F0000
1F0000
1E0000
1E0000
1E0000
1E0000
1E0000
1E0000
1E0000
FFFC00
FFFC00
FFFC00
FFFC00
1F0000
1F0000
1F0000
1F0000
1F0000
1F0000
1E0000
1E0000
1E0000
1E0000
3E0000
3C0000
7C0000
FFFF80
FFFF80
FFFF80
FFFF80
ENDCHAR
STARTCHAR 00A4
ENCODING 164
SWIDTH 360 0
DWIDTH 20 0
BBX 18 19 1 10
BITMAP
23F180
7FFFC0
FFFF80
3FFF00
7E1F00
780F80
F80780
F00780
F00780
F003C0
F00780
F00780
F80780
780F80
7E1F00
3FFF00
7FFF80
FFFFC0
23F100
ENDCHAR
STARTCHAR 00A5
ENCODING 165
SWIDTH 324 0
DWIDTH 18 0
BBX 16 39 1 0
BITMAP
F81F
F81F
F81E
781E
781E
781E
783E
7C3E
3C3C
3C3C
3C3C
3C3C
3C3C
1E78
1E78
1E78
1E78
1E78
0E70
0EF0
0FF0
0FF0
0FF0
07E0
07E0
3FFC
3FFC
3FFC
03C0
03C0
03C0
3FFC
3FFC
3FFC
03C0
03C0
03C0
03C0
03C0
ENDCHAR
STARTCHAR 00A6
ENCODING 166
SWIDTH 126 0
DWIDTH 7 0
BBX 4 43 2 -2
BITMAP
F0
F0
F0
F0
F0
F0
F0
F0
F0
F0
F0
F0
F0
F0
F0
F0
F0
F0
F0
F0
00
00
00
F0
F0
F0
F0
F0
F0
F0
F0
F0
F0
F0
F0
F0
F0
F0
F0
F0
F0
F0
F0
ENDCHAR
STARTCHAR 00A7
ENCODING 167
SWIDTH 306 0
DWIDTH 17 0
BBX 11 50 3 -10
BITMAP
03E0
0FE0
3FE0
7FE0
7E00
F800
F000
F000
F000
F000
F000
F000
7800
7C00
3C00
3E00
1F00
1F00
1F80
7F80
7FC0
FBC0
F3E0
F1E0
F1E0
F1E0
F1E0
F3E0
FFE0
7FC0
7FC0
3F80
1E00
1F00
0F80
0780
07C0
03C0
03E0
01E0
01E0
01E0
01E0
03E0
03E0
1FC0
FFC0
FF80
FE00
F800
ENDCHAR
STARTCHAR 00A8
ENCODING 168
SWIDTH 270 0
DWIDTH 15 0
BBX 13 6 1 27
BITMAP
78F0
FDF8
FDF8
FDF8
FDF8
78F0
ENDCHAR
STARTCHAR 00A9
ENCODING 169
SWIDTH 504 0
DWIDTH 28 0
BBX 26 39 0 0
BITMAP
003F0000
01FFC000
03FFF000
07C0F800
0F003800
0E1E1C00
1C3F0E00
1C7F0E00
38738700
38738700
70E38300
70E38380
70E1C380
60E1C380
E0E1C180
E0E00180
E0E001C0
E0E001C0
E0E001C0
E0E001C0
E0E001C0
E0E001C0
E0E001C0
E0E1C180
E0E1C180
60E1C380
70E38380
70E38380
70738300
30738700
387F0700
183F0E00
1C1E0E00
0E001C00
0F003800
07C0F800
03FFF000
01FFC000
007F0000
ENDCHAR
STARTCHAR 00AA
ENCODING 170
SWIDTH 198 0
DWIDTH 11 0
BBX 10 18 0 13
BITMAP
0F00
1F80
3FC0
39C0
79C0
71C0
07C0
0FC0
3DC0
39C0
71C0
71C0
E1C0
E3C0
F7C0
7FC0
7DC0
3800
ENDCHAR
STARTCHAR 00AB
ENCODING 171
SWIDTH 324 0
DWIDTH 18 0
BBX 15 13 1 13
BITMAP
0408
0E0C
1F1E
3E3E
7C7C
F8F8
F9F0
7CF8
3E7C
1F3E
0E1E
040C
0008
ENDCHAR
STARTCHAR 00AC
ENCODING 172
SWIDTH 270 0
DWIDTH 15 0
BBX 14 8 1 15
BITMAP
FFFC
FFFC
FFFC
FFFC
003C
003C
003C
003C
ENDCHAR
STARTCHAR 00AE
ENCODING 174
SWIDTH 504 0
DWIDTH 28 0
BBX 26 39 1 0
BITMAP
003F0000
00FFC000
03FFF000
07C0F800
0F003C00
0E001C00
1C700E00
1C7E0E00
387F0700
38738700
70738300
70718380
7071C380
7071C380
6071C180
E071C1C0
E071C1C0
E07181C0
E07381C0
E07381C0
E07301C0
E07701C0
E07E01C0
E07F01C0
607F0180
60770380
70730380
70738380
70738380
38738700
38718700
1C71CE00
1C000E00
0E001C00
0F003C00
07C0F800
03FFF000
00FFC000
003F0000
ENDCHAR
STARTCHAR 00AF
ENCODING 175
SWIDTH 216 0
DWIDTH 12 0
BBX 11 4 1 35
BITMAP
FFE0
FFE0
FFE0
FFE0
ENDCHAR
STARTCHAR 00B0
ENCODING 176
SWIDTH 180 0
DWIDTH 10 0
BBX 8 8 1 31
BITMAP
3C
FE
FF
E7
E7
FF
FE
3C
ENDCHAR
STARTCHAR 00B1
ENCODING 177
SWIDTH 288 0
DWIDTH 16 0
BBX 14 21 1 9
BITMAP
0780
0780
0780
0780
0780
FFFC
FFFC
FFFC
FFFC
0780
0780
0780
0780
0780
0000
0000
0000
FFFC
FFFC
FFFC
FFFC
ENDCHAR
STARTCHAR 00B2
ENCODING 178
SWIDTH 198 0
DWIDTH 11 0
BBX 9 25 1 14
BITMAP
1E00
7F00
7F80
F780
E380
E380
E380
0380
0780
0780
0700
0F00
0F00
0E00
1E00
1C00
3C00
3800
7800
7000
F000
F000
FF80
FF80
FF80
ENDCHAR
STARTCHAR 00B3
ENCODING 179
SWIDTH 198 0
DWIDTH 11 0
BBX 10 26 0 13
BITMAP
0F00
3F80
3F80
7BC0
73C0
71C0
71C0
01C0
01C0
03C0
1FC0
1F80
1F80
0780
03C0
F1C0
F1C0
F1C0
F1C0
F1C0
71C0
71C0
7BC0
7FC0
3F80
1F00
ENDCHAR
STARTCHAR 00B4
ENCODING 180
SWIDTH 144 0
DWIDTH 8 0
BBX 6 8 1 27
BITMAP
7C
78
78
F0
F0
E0
E0
C0
ENDCHAR
STARTCHAR 00B6
ENCODING 182
SWIDTH 504 0
DWIDTH 28 0
BBX 22 43 3 -9
BITMAP
0FFFFC
1FFFFC
3FFFFC
3FFFFC
7FFE3C
7FFE3C
7FFE3C
FFFE3C
FFFE3C
FFFE3C
FFFE3C
FFFE3C
FFFE3C
FFFE3C
FFFE3C
FFFE3C
FFFE3C
FFFE3C
FFFE3C
FFFE3C
FFFE3C
7FFE3C
7FBE3C
3FBE3C
3F3E3C
0C3E3C
003E3C
003E3C
003E3C
003E3C
003E3C
003E3C
003E3C
003E3C
003E3C
003E3C
003E3C
003E3C
003E3C
003E3C
003E3C
003E3C
003E3C
ENDCHAR
STARTCHAR 00B7
ENCODING 183
SWIDTH 126 0
DWIDTH 7 0
BBX 6 6 1 17
BITMAP
70
F8
FC
FC
F8
70
ENDCHAR
STARTCHAR 00B8
ENCODING 184
SWIDTH 144 0
DWIDTH 8 0
BBX 6 7 1 -7
BITMAP
60
78
7C
0C
0C
FC
F8
ENDCHAR
STARTCHAR 00B9
ENCODING 185
SWIDTH 126 0
DWIDTH 7 0
BBX 6 25 0 14
BITMAP
1C
7C
FC
FC
FC
BC
3C
3C
3C
3C
3C
3C
3C
3C
3C
3C
3C
3C
3C
3C
3C
3C
3C
3C
3C
ENDCHAR
STARTCHAR 00BA
ENCODING 186
SWIDTH 180 0
DWIDTH 10 0
BBX 9 25 1 14
BITMAP
1C00
3E00
7F00
7700
F700
E700
E780
E780
E780
E780
E780
E780
E780
E780
E780
E780
E780
E780
E780
E700
F700
7700
7F00
3E00
1C00
ENDCHAR
STARTCHAR 00BB
ENCODING 187
SWIDTH 324 0
DWIDTH 18 0
BBX 16 13 1 13
BITMAP
2040
70E0
F9F0
7C78
3E3C
1F1F
0FBE
1F3C
3E78
7CF0
F9E0
7040
2000
ENDCHAR
STARTCHAR 00BC
ENCODING 188
SWIDTH 396 0
DWIDTH 22 0
BBX 20 39 1 0
BITMAP
381C00
781C00
F83C00
F83C00
F83800
B83800
383800
387800
387800
387000
387000
387000
38F000
38F000
38F1E0
38E3E0
38E3E0
38E3E0
39E7E0
39E7E0
39C7E0
39CFE0
39CFE0
3BCFE0
3BCFE0
3B9DE0
039DE0
039DE0
07BDE0
07B9E0
0739E0
0779E0
077FF0
077FF0
0F7FF0
0F01E0
0E01E0
0E01E0
1E01E0
ENDCHAR
STARTCHAR 00BD
ENCODING 189
SWIDTH 414 0
DWIDTH 23 0
BBX 21 39 1 0
BITMAP
381C00
783C00
F83C00
F83C00
F83800
B83800
383800
387800
387800
387000
387000
387000
38F000
38F3C0
38F7F0
38EFF0
38EE78
39EE78
39EE38
39FE38
39C078
39C078
3BC078
3BC070
3BC0F0
3B80F0
0380E0
0381E0
0781C0
0783C0
0703C0
070380
070780
0F0700
0F0F00
0F0E00
0E0FF8
0E0FF8
1E0FF8
ENDCHAR
STARTCHAR 00BE
ENCODING 190
SWIDTH 468 0
DWIDTH 26 0
BBX 23 39 1 0
BITMAP
1E01C0
3F03C0
7F83C0
738380
F38380
E38380
E3C780
03C780
03C700
038700
1F8700
1F0F00
1F0F00
0F8E00
038E3C
E38E3C
E3DE7C
E3DE7C
E3DE7C
E3DCFC
E3DCFC
F3DCFC
73BCFC
7FBDDC
7F39DC
1E39DC
003BDC
007B9C
007B9C
00739C
00779C
00771C
00F7FE
00F7FE
00E7FE
00E01C
00E01C
00E01C
01E01C
ENDCHAR
STARTCHAR 00BF
ENCODING 191
SWIDTH 288 0
DWIDTH 16 0
BBX 13 40 2 -5
BITMAP
0380
0780
07C0
0780
0780
0000
0000
0000
0000
0380
0380
0380
0380
0380
0380
0780
0780
0F00
0F00
1E00
1E00
3C00
3C00
7C00
7800
7800
F000
F000
F078
F078
F070
F070
F0F0
F0F0
F0F0
F1E0
FFE0
7FC0
3FC0
1F00
ENDCHAR
STARTCHAR 00C0
ENCODING 192
SWIDTH 288 0
DWIDTH 16 0
BBX 16 49 0 0
BITMAP
3E00
1F00
0F00
0F00
0700
0700
0380
0380
0180
0000
07E0
07E0
07E0
07E0
07F0
07F0
07F0
0FF0
0FF0
0F70
0F70
0F70
0E78
0E78
1E78
1E78
1E78
1E78
1E78
1E38
1E3C
1E3C
3E3C
3C3C
3C3C
3C3C
3C3C
3C3E
3FFE
3FFE
7FFE
7FFE
7C1E
781E
781E
781F
781F
781F
F81F
ENDCHAR
STARTCHAR 00C1
ENCODING 193
SWIDTH 288 0
DWIDTH 16 0
BBX 16 49 0 0
BITMAP
007C
00F8
00F8
00F0
00E0
00E0
01C0
01C0
0180
0000
07E0
07E0
07E0
07E0
07F0
07F0
07F0
0FF0
0FF0
0F70
0F70
0F70
0E78
0E78
1E78
1E78
1E78
1E78
1E78
1E38
1E3C
1E3C
3E3C
3C3C
3C3C
3C3C
3C3C
3C3E
3FFE
3FFE
7FFE
7FFE
7C1E
781E
781E
781F
781F
781F
F81F
ENDCHAR
STARTCHAR 00C2
ENCODING 194
SWIDTH 288 0
DWIDTH 16 0
BBX 16 49 0 0
BITMAP
01C0
03C0
03C0
03E0
07E0
0770
0F70
0E70
0E78
0000
07E0
07E0
07E0
07E0
07F0
07F0
07F0
0FF0
0FF0
0F70
0F70
0F70
0E78
0E78
1E78
1E78
1E78
1E78
1E78
1E38
1E3C
1E3C
3E3C
3C3C
3C3C
3C3C
3C3C
3C3E
3FFE
3FFE
7FFE
7FFE
7C1E
781E
781E
781F
781F
781F
F81F
ENDCHAR
STARTCHAR 00C3
ENCODING 195
SWIDTH 288 0
DWIDTH 16 0
BBX 16 45 0 0
BITMAP
0408
1F98
1FF8
19F8
0040
0000
07E0
07E0
07E0
07E0
07F0
07F0
07F0
0FF0
0FF0
0F70
0F70
0F70
0E78
0E78
1E78
1E78
1E78
1E78
1E78
1E38
1E3C
1E3C
3E3C
3C3C
3C3C
3C3C
3C3C
3C3E
3FFE
3FFE
7FFE
7FFE
7C1E
781E
781E
781F
781F
781F
F81F
ENDCHAR
STARTCHAR 00C4
ENCODING 196
SWIDTH 288 0
DWIDTH 16 0
BBX 16 47 0 0
BITMAP
0810
3E7C
3F7E
3F7E
3F7E
3E7C
0810
0000
07E0
07E0
07E0
07E0
07F0
07F0
07F0
0FF0
0FF0
0F70
0F70
0F70
0E78
0E78
1E78
1E78
1E78
1E78
1E78
1E38
1E3C
1E3C
3E3C
3C3C
3C3C
3C3C
3C3C
3C3E
3FFE
3FFE
7FFE
7FFE
7C1E
781E
781E
781F
781F
781F
F81F
ENDCHAR
STARTCHAR 00C5
ENCODING 197
SWIDTH 288 0
DWIDTH 16 0
BBX 16 47 0 0
BITMAP
03C0
07E0
0FF0
0E30
0C30
0E30
07F0
07E0
07E0
07E0
07E0
07E0
07F0
07F0
07F0
0FF0
0FF0
0F70
0F70
0F70
0E78
0E78
1E78
1E78
1E78
1E78
1E78
1E38
1E3C
1E3C
3E3C
3C3C
3C3C
3C3C
3C3C
3C3E
3FFE
3FFE
7FFE
7FFE
7C1E
781E
781E
781F
781F
781F
F81F
ENDCHAR
STARTCHAR 00C6
ENCODING 198
SWIDTH 414 0
DWIDTH 23 0
BBX 22 39 0 0
BITMAP
07FFFC
07FFFC
07FFFC
07FFFC
079E00
079E00
079E00
0F9E00
0F1E00
0F1E00
0F1E00
0F1E00
0F1E00
0F1E00
1F1E00
1F1E00
1E1E00
1E1E00
1E1E00
1E1FF8
1E1FF8
1E1FF8
3E1FF8
3E1E00
3E1E00
3C1E00
3C1E00
3C1E00
3FFE00
3FFE00
7FFE00
7FFE00
7C1E00
781E00
781E00
781FFC
781FFC
781FFC
F81FFC
ENDCHAR
STARTCHAR 00C7
ENCODING 199
SWIDTH 288 0
DWIDTH 16 0
BBX 14 46 1 -7
BITMAP
0780
1FE0
1FF0
3FF0
3CF8
7878
7878
787C
F87C
F07C
F07C
F07C
F07C
F07C
F000
F000
F000
F000
F000
F000
F000
F000
F000
F000
F000
F07C
F07C
F07C
F07C
F07C
F87C
F87C
7878
7878
7CF8
3FF8
3FF0
1FE0
0FC0
0300
03C0
03E0
0060
0060
07E0
07C0
ENDCHAR
STARTCHAR 00C8
ENCODING 200
SWIDTH 234 0
DWIDTH 13 0
BBX 11 49 1 0
BITMAP
F800
F800
7800
7800
3C00
3C00
1C00
0C00
0C00
0000
FFE0
FFE0
FFE0
FFE0
F800
F800
F800
F800
F800
F800
F800
F800
F800
F800
F800
F800
F800
F800
F800
FFE0
FFE0
FFE0
FFE0
F800
F800
F800
F800
F800
F800
F800
F800
F800
F800
F800
F800
FFE0
FFE0
FFE0
FFE0
ENDCHAR
STARTCHAR 00C9
ENCODING 201
SWIDTH 234 0
DWIDTH 13 0
BBX 11 49 1 0
BITMAP
03E0
03C0
07C0
0780
0780
0700
0700
0E00
0C00
0000
FFE0
FFE0
FFE0
FFE0
F800
F800
F800
F800
F800
F800
F800
F800
F800
F800
F800
F800
F800
F800
F800
FFE0
FFE0
FFE0
FFE0
F800
F800
F800
F800
F800
F800
F800
F800
F800
F800
F800
F800
FFE0
FFE0
FFE0
FFE0
ENDCHAR
STARTCHAR 00CA
ENCODING 202
SWIDTH 234 0
DWIDTH 13 0
BBX 11 49 1 0
BITMAP
0E00
0E00
1F00
1F00
3B00
3B80
3B80
7B80
73C0
0000
FFE0
FFE0
FFE0
FFE0
F800
F800
F800
F800
F800
F800
F800
F800
F800
F800
F800
F800
F800
F800
F800
FFE0
FFE0
FFE0
FFE0
F800
F800
F800
F800
F800
F800
F800
F800
F800
F800
F800
F800
FFE0
FFE0
FFE0
FFE0
ENDCHAR
STARTCHAR 00CB
ENCODING 203
SWIDTH 234 0
DWIDTH 13 0
BBX 13 47 0 0
BITMAP
2040
79F0
FDF8
FDF8
FDF8
79F0
2040
0000
7FF0
7FF0
7FF0
7FF0
7C00
7C00
7C00
7C00
7C00
7C00
7C00
7C00
7C00
7C00
7C00
7C00
7C00
7C00
7C00
7FF0
7FF0
7FF0
7FF0
7C00
7C00
7C00
7C00
7C00
7C00
7C00
7C00
7C00
7C00
7C00
7C00
7FF0
7FF0
7FF0
7FF0
ENDCHAR
STARTCHAR 00CC
ENCODING 204
SWIDTH 126 0
DWIDTH 7 0
BBX 8 49 -2 0
BITMAP
F8
F8
78
78
38
3C
1C
0C
0C
00
1F
1F
1F
1F
1F
1F
1F
1F
1F
1F
1F
1F
1F
1F
1F
1F
1F
1F
1F
1F
1F
1F
1F
1F
1F
1F
1F
1F
1F
1F
1F
1F
1F
1F
1F
1F
1F
1F
1F
ENDCHAR
STARTCHAR 00CD
ENCODING 205
SWIDTH 126 0
DWIDTH 7 0
BBX 8 49 1 0
BITMAP
1F
1E
3E
3C
3C
38
30
70
60
00
F8
F8
F8
F8
F8
F8
F8
F8
F8
F8
F8
F8
F8
F8
F8
F8
F8
F8
F8
F8
F8
F8
F8
F8
F8
F8
F8
F8
F8
F8
F8
F8
F8
F8
F8
F8
F8
F8
F8
ENDCHAR
STARTCHAR 00CE
ENCODING 206
SWIDTH 126 0
DWIDTH 7 0
BBX 9 49 -1 0
BITMAP
1C00
3C00
3E00
3E00
7600
7700
7700
F700
E780
0000
3E00
3E00
3E00
3E00
3E00
3E00
3E00
3E00
3E00
3E00
3E00
3E00
3E00
3E00
3E00
3E00
3E00
3E00
3E00
3E00
3E00
3E00
3E00
3E00
3E00
3E00
3E00
3E00
3E00
3E00
3E00
3E00
3E00
3E00
3E00
3E00
3E00
3E00
3E00
ENDCHAR
STARTCHAR 00CF
ENCODING 207
SWIDTH 126 0
DWIDTH 7 0
BBX 13 47 -3 0
BITMAP
2040
F9F0
FDF8
FDF8
FDF8
F9F0
2040
0000
0F80
0F80
0F80
0F80
0F80
0F80
0F80
0F80
0F80
0F80
0F80
0F80
0F80
0F80
0F80
0F80
0F80
0F80
0F80
0F80
0F80
0F80
0F80
0F80
0F80
0F80
0F80
0F80
0F80
0F80
0F80
0F80
0F80
0F80
0F80
0F80
0F80
0F80
0F80
ENDCHAR
STARTCHAR 00D0
ENCODING 208
SWIDTH 288 0
DWIDTH 16 0
BBX 17 39 -1 0
BITMAP
1FC000
1FF000
1FF800
1FF800
1EFC00
1E7E00
1E3E00
1E1E00
1E1F00
1E0F00
1E0F00
1E0F80
1E0F80
1E0780
1E0780
1E0780
1E0780
FFC780
FFC780
FFC780
FFC780
1E0780
1E0780
1E0780
1E0780
1E0F80
1E0F80
1E0F00
1E0F00
1E1F00
1E1F00
1E3E00
1E7E00
1EFC00
1FFC00
1FF800
1FF000
1FE000
1FC000
ENDCHAR
STARTCHAR 00D1
ENCODING 209
SWIDTH 306 0
DWIDTH 17 0
BBX 15 45 1 0
BITMAP
0410
1F90
1FF0
11F0
0040
0000
F01E
F81E
F81E
F81E
FC1E
FC1E
FC1E
FC1E
FE1E
FE1E
FE1E
FE1E
FF1E
FF1E
FF1E
FF1E
FF9E
FF9E
FF9E
FBDE
FBDE
FBDE
FBDE
F9FE
F9FE
F9FE
F8FE
F8FE
F8FE
F8FE
F87E
F87E
F87E
F87E
F83E
F83E
F83E
F81E
F81E
ENDCHAR
STARTCHAR 00D2
ENCODING 210
SWIDTH 288 0
DWIDTH 16 0
BBX 14 49 1 0
BITMAP
7C00
3C00
3E00
1E00
1E00
0E00
0E00
0700
0300
0000
0780
1FC0
1FE0
3FF0
3CF0
78F8
7878
7878
F878
F07C
F07C
F03C
F03C
F03C
F03C
F03C
F03C
F03C
F03C
F03C
F03C
F03C
F03C
F03C
F03C
F03C
F03C
F03C
F07C
F07C
F878
7878
7878
78F8
3CF0
3FF0
1FE0
1FC0
0780
ENDCHAR
STARTCHAR 00D3
ENCODING 211
SWIDTH 288 0
DWIDTH 16 0
BBX 14 49 1 0
BITMAP
01F0
01F0
01E0
01E0
03C0
03C0
0380
0300
0300
0000
0780
1FC0
1FE0
3FF0
3CF0
78F8
7878
7878
F878
F07C
F07C
F03C
F03C
F03C
F03C
F03C
F03C
F03C
F03C
F03C
F03C
F03C
F03C
F03C
F03C
F03C
F03C
F03C
F07C
F07C
F878
7878
7878
78F8
3CF0
3FF0
1FE0
1FC0
0780
ENDCHAR
STARTCHAR 00D4
ENCODING 212
SWIDTH 288 0
DWIDTH 16 0
BBX 14 49 1 0
BITMAP
0700
0780
0780
0F80
0FC0
0DC0
1DE0
1CE0
3CE0
0000
0780
1FC0
1FE0
3FF0
3CF0
78F8
7878
7878
F878
F07C
F07C
F03C
F03C
F03C
F03C
F03C
F03C
F03C
F03C
F03C
F03C
F03C
F03C
F03C
F03C
F03C
F03C
F03C
F07C
F07C
F878
7878
7878
78F8
3CF0
3FF0
1FE0
1FC0
0780
ENDCHAR
STARTCHAR 00D5
ENCODING 213
SWIDTH 288 0
DWIDTH 16 0
BBX 14 45 1 0
BITMAP
0810
3F30
3FF0
33E0
0080
0000
0780
1FC0
1FE0
3FF0
3CF0
78F8
7878
7878
F878
F07C
F07C
F03C
F03C
F03C
F03C
F03C
F03C
F03C
F03C
F03C
F03C
F03C
F03C
F03C
F03C
F03C
F03C
F03C
F07C
F07C
F878
7878
7878
78F8
3CF0
3FF0
1FE0
1FC0
0780
ENDCHAR
STARTCHAR 00D6
ENCODING 214
SWIDTH 288 0
DWIDTH 16 0
BBX 14 47 1 0
BITMAP
3060
7CF8
FDF8
FFF8
FDF8
7CF8
3060
0000
0780
1FC0
1FE0
3FF0
3CF0
78F8
7878
7878
F878
F07C
F07C
F03C
F03C
F03C
F03C
F03C
F03C
F03C
F03C
F03C
F03C
F03C
F03C
F03C
F03C
F03C
F03C
F03C
F07C
F07C
F878
7878
7878
78F8
3CF0
3FF0
1FE0
1FC0
0780
ENDCHAR
STARTCHAR 00D7
ENCODING 215
SWIDTH 288 0
DWIDTH 16 0
BBX 14 13 1 13
BITMAP
1020
3870
7CF8
FFFC
7FF8
3FF0
1FE0
3FE0
7FF0
FFF8
7FFC
3CF0
1860
ENDCHAR
STARTCHAR 00D8
ENCODING 216
SWIDTH 288 0
DWIDTH 16 0
BBX 14 45 1 -3
BITMAP
0078
0078
0078
07F0
1FF0
1FF0
3FF0
3CF8
78F8
78F8
79F8
F1F8
F1FC
F1FC
F1FC
F1FC
F3FC
F3FC
F3FC
F3FC
F3FC
F7BC
F7BC
F7BC
F7BC
F7BC
F7BC
FF3C
FF3C
FF3C
FF3C
FF7C
FE78
FE78
FE78
7E78
7EF8
7EF0
3FF0
3FE0
3FC0
3F80
3C00
3C00
7800
ENDCHAR
STARTCHAR 00D9
ENCODING 217
SWIDTH 306 0
DWIDTH 17 0
BBX 15 49 1 0
BITMAP
3E00
3E00
1E00
1E00
0F00
0F00
0700
0300
0300
0000
F83E
F83E
F83E
F83E
F83E
F83E
F83E
F83E
F83E
F83E
F83E
F83E
F83E
F83E
F83E
F83E
F83E
F83E
F83E
F83E
F83E
F83E
F83E
F83E
F83E
F83E
F83E
F83E
F83E
F83E
F83C
783C
787C
7C7C
7CFC
3FF8
3FF0
1FF0
07C0
ENDCHAR
STARTCHAR 00DA
ENCODING 218
SWIDTH 306 0
DWIDTH 17 0
BBX 15 49 1 0
BITMAP
00F8
00F0
01F0
01E0
01E0
01C0
01C0
0380
0300
0000
F83E
F83E
F83E
F83E
F83E
F83E
F83E
F83E
F83E
F83E
F83E
F83E
F83E
F83E
F83E
F83E
F83E
F83E
F83E
F83E
F83E
F83E
F83E
F83E
F83E
F83E
F83E
F83E
F83E
F83E
F83C
783C
787C
7C7C
7CFC
3FF8
3FF0
1FF0
07C0
ENDCHAR
STARTCHAR 00DB
ENCODING 219
SWIDTH 306 0
DWIDTH 17 0
BBX 15 49 1 0
BITMAP
0380
0780
07C0
07C0
0EC0
0EE0
0EE0
1EE0
1CF0
0000
F83E
F83E
F83E
F83E
F83E
F83E
F83E
F83E
F83E
F83E
F83E
F83E
F83E
F83E
F83E
F83E
F83E
F83E
F83E
F83E
F83E
F83E
F83E
F83E
F83E
F83E
F83E
F83E
F83E
F83E
F83C
783C
787C
7C7C
7CFC
3FF8
3FF0
1FF0
07C0
ENDCHAR
STARTCHAR 00DC
ENCODING 220
SWIDTH 306 0
DWIDTH 17 0
BBX 15 47 1 0
BITMAP
1020
3CF8
7EFC
7EFC
7EFC
3CF8
1020
0000
F83E
F83E
F83E
F83E
F83E
F83E
F83E
F83E
F83E
F83E
F83E
F83E
F83E
F83E
F83E
F83E
F83E
F83E
F83E
F83E
F83E
F83E
F83E
F83E
F83E
F83E
F83E
F83E
F83E
F83E
F83C
783C
787C
7C7C
7CFC
3FF8
3FF0
1FF0
07C0
ENDCHAR
STARTCHAR 00DD
ENCODING 221
SWIDTH 324 0
DWIDTH 18 0
BBX 16 49 1 0
BITMAP
00F8
00F8
00F0
00F0
00E0
01E0
01C0
01C0
0180
0000
F81F
F81F
F81E
781E
781E
781E
783E
7C3C
3C3C
3C3C
3C3C
3C3C
3C78
1E78
1E78
1E78
1E78
1E70
0E70
0FF0
0FF0
0FF0
0FF0
07E0
07E0
07E0
07E0
07E0
03C0
03C0
03C0
03C0
03C0
03C0
03C0
03C0
03C0
03C0
03C0
ENDCHAR
STARTCHAR 00DE
ENCODING 222
SWIDTH 306 0
DWIDTH 17 0
BBX 16 33 1 -3
BITMAP
F800
F800
F800
F840
F9F0
FBF8
FBFC
FFFE
FE3E
FE1E
FC1E
FC1F
FC1F
FC0F
F80F
F80F
F80F
F80F
F80F
F80E
F80E
F81E
F81E
F81E
FC1C
FC3C
FE78
FFF8
FBF0
F9C0
F800
F800
F800
ENDCHAR
STARTCHAR 00DF
ENCODING 223
SWIDTH 306 0
DWIDTH 17 0
BBX 15 39 1 0
BITMAP
07C0
1FE0
3FF0
3FF8
7C78
7C38
783C
783C
F83C
F83C
F83C
F83C
F83C
F838
F878
F878
F9F0
F9E0
F9E0
F9F0
F8F8
F87C
F83C
F83C
F83C
F83E
F83E
F83E
F83E
F83E
F83E
F83C
F83C
F87C
F87C
F9F8
F9F0
F9E0
F9C0
ENDCHAR
STARTCHAR 00E0
ENCODING 224
SWIDTH 306 0
DWIDTH 17 0
BBX 15 36 1 -1
BITMAP
3E00
1E00
1E00
0F00
0F00
0700
0300
0380
0000
03E0
0FF0
1FF8
1FFC
3E7C
3C3C
7C3C
781E
001E
001E
01FE
07DE
0F1E
1C1E
383E
783E
703E
F03E
F03E
F07E
F07E
F0FE
F1BE
7FBE
7F3E
3E3E
1C00
ENDCHAR
STARTCHAR 00E1
ENCODING 225
SWIDTH 306 0
DWIDTH 17 0
BBX 15 36 1 -1
BITMAP
00F8
00F0
00F0
01E0
01E0
01C0
01C0
0180
0200
03E0
0FF0
1FF8
1FFC
3E7C
3C3C
7C3C
781E
001E
001E
01FE
07DE
0F1E
1C1E
383E
783E
703E
F03E
F03E
F07E
F07E
F0FE
F1BE
7FBE
7F3E
3E3E
1C00
ENDCHAR
STARTCHAR 00E2
ENCODING 226
SWIDTH 306 0
DWIDTH 17 0
BBX 15 36 1 -1
BITMAP
0380
03C0
07C0
07C0
06E0
0EE0
0EF0
1E70
0000
03E0
0FF0
1FF8
1FFC
3E7C
3C3C
7C3C
781E
001E
001E
01FE
07DE
0F1E
1C1E
383E
783E
703E
F03E
F03E
F07E
F07E
F0FE
F1BE
7FBE
7F3E
3E3E
1C00
ENDCHAR
STARTCHAR 00E3
ENCODING 227
SWIDTH 306 0
DWIDTH 17 0
BBX 15 32 1 -1
BITMAP
0F10
1FF0
1FF0
20F0
0000
03E0
0FF0
1FF8
1FFC
3E7C
3C3C
7C3C
781E
001E
001E
01FE
07DE
0F1E
1C1E
383E
783E
703E
F03E
F03E
F07E
F07E
F0FE
F1BE
7FBE
7F3E
3E3E
1C00
ENDCHAR
STARTCHAR 00E4
ENCODING 228
SWIDTH 306 0
DWIDTH 17 0
BBX 15 34 1 -1
BITMAP
3C78
7EFC
7EFC
7EFC
7EFC
3C78
0000
03E0
0FF0
1FF8
1FFC
3E7C
3C3C
7C3C
781E
001E
001E
01FE
07DE
0F1E
1C1E
383E
783E
703E
F03E
F03E
F07E
F07E
F0FE
F1BE
7FBE
7F3E
3E3E
1C00
ENDCHAR
STARTCHAR 00E5
ENCODING 229
SWIDTH 306 0
DWIDTH 17 0
BBX 15 35 1 -1
BITMAP
03C0
07E0
0FF0
0C30
0C30
0E30
0FF0
07E0
03E0
0FF0
1FF8
1FFC
3E7C
3C3C
7C3C
781E
001E
001E
01FE
07DE
0F1E
1C1E
383E
783E
703E
F03E
F03E
F07E
F07E
F0FE
F1BE
7FBE
7F3E
3E3E
1C00
ENDCHAR
STARTCHAR 00E6
ENCODING 230
SWIDTH 468 0
DWIDTH 26 0
BBX 24 26 1 0
BITMAP
07C1F0
0FF3F8
1FFFFC
3FFFFE
3C7F1E
783F0F
783E0F
783E0F
003E0F
003FFF
03FFFF
07FFFF
1E3E00
3C3E00
783E00
703E0F
F03E0F
F03E0F
E07E0F
E07E0F
E0EF0F
F0EF1E
F1CFFE
FFC7FC
7F83F8
3E01F0
ENDCHAR
STARTCHAR 00E7
ENCODING 231
SWIDTH 270 0
DWIDTH 15 0
BBX 13 33 1 -7
BITMAP
0780
1FE0
3FF0
3FF0
7CF8
7878
F078
F078
F000
F000
F000
F000
F000
F000
F000
F000
F078
F078
F078
F078
7078
7878
7CF0
3FF0
1FE0
0FC0
0300
03C0
03C0
00E0
00E0
07C0
0F80
ENDCHAR
STARTCHAR 00E8
ENCODING 232
SWIDTH 270 0
DWIDTH 15 0
BBX 14 35 0 0
BITMAP
3E00
3E00
1E00
0E00
0F00
0700
0700
0300
0000
07C0
0FF0
1FF0
3FF8
3E78
3C3C
783C
783C
783C
7FFC
7FFC
7FFC
F800
F800
7800
783C
783C
783C
783C
783C
3C3C
3E78
3FF8
1FF0
0FE0
07C0
ENDCHAR
STARTCHAR 00E9
ENCODING 233
SWIDTH 270 0
DWIDTH 15 0
BBX 14 35 0 0
BITMAP
00F8
00F0
01E0
01E0
01C0
01C0
0380
0380
0000
07C0
0FF0
1FF0
3FF8
3E78
3C3C
783C
783C
783C
7FFC
7FFC
7FFC
F800
F800
7800
783C
783C
783C
783C
783C
3C3C
3E78
3FF8
1FF0
0FE0
07C0
ENDCHAR
STARTCHAR 00EA
ENCODING 234
SWIDTH 270 0
DWIDTH 15 0
BBX 14 35 0 0
BITMAP
0380
0780
07C0
07C0
0EE0
0EE0
0EE0
1CF0
0000
07C0
0FF0
1FF0
3FF8
3E78
3C3C
783C
783C
783C
7FFC
7FFC
7FFC
F800
F800
7800
783C
783C
783C
783C
783C
3C3C
3E78
3FF8
1FF0
0FE0
07C0
ENDCHAR
STARTCHAR 00EB
ENCODING 235
SWIDTH 270 0
DWIDTH 15 0
BBX 14 33 0 0
BITMAP
3C78
7EFC
7EFC
7EFC
7EFC
3C78
0000
07C0
0FF0
1FF0
3FF8
3E78
3C3C
783C
783C
783C
7FFC
7FFC
7FFC
F800
F800
7800
783C
783C
783C
783C
783C
3C3C
3E78
3FF8
1FF0
0FE0
07C0
ENDCHAR
STARTCHAR 00EC
ENCODING 236
SWIDTH 126 0
DWIDTH 7 0
BBX 8 35 -2 0
BITMAP
F8
78
78
38
3C
1C
1C
0C
00
1F
1F
1F
1F
1F
1F
1F
1F
1F
1F
1F
1F
1F
1F
1F
1F
1F
1F
1F
1F
1F
1F
1F
1F
1F
1F
ENDCHAR
STARTCHAR 00ED
ENCODING 237
SWIDTH 126 0
DWIDTH 7 0
BBX 8 35 1 0
BITMAP
1F
1E
3E
3C
38
38
30
70
00
F8
F8
F8
F8
F8
F8
F8
F8
F8
F8
F8
F8
F8
F8
F8
F8
F8
F8
F8
F8
F8
F8
F8
F8
F8
F8
ENDCHAR
STARTCHAR 00EE
ENCODING 238
SWIDTH 126 0
DWIDTH 7 0
BBX 9 35 -1 0
BITMAP
1C00
3E00
3E00
3600
7700
7700
7700
F780
0000
3E00
3E00
3E00
3E00
3E00
3E00
3E00
3E00
3E00
3E00
3E00
3E00
3E00
3E00
3E00
3E00
3E00
3E00
3E00
3E00
3E00
3E00
3E00
3E00
3E00
3E00
ENDCHAR
STARTCHAR 00EF
ENCODING 239
SWIDTH 126 0
DWIDTH 7 0
BBX 13 33 -3 0
BITMAP
78F0
FDF8
FDF8
FDF8
FDF8
78F0
0000
0F80
0F80
0F80
0F80
0F80
0F80
0F80
0F80
0F80
0F80
0F80
0F80
0F80
0F80
0F80
0F80
0F80
0F80
0F80
0F80
0F80
0F80
0F80
0F80
0F80
0F80
ENDCHAR
STARTCHAR 00F0
ENCODING 240
SWIDTH 288 0
DWIDTH 16 0
BBX 14 39 1 0
BITMAP
0F80
0780
07C4
03FC
03FC
1FFC
7FE0
7FE0
71F0
01F0
00F0
00F0
00F8
00F8
1E78
3FF8
7FF8
787C
F87C
F07C
F07C
F03C
F03C
F03C
F03C
F03C
F03C
F03C
F03C
F03C
F03C
F07C
F87C
F878
7CF8
7FF0
3FF0
1FE0
0FC0
ENDCHAR
STARTCHAR 00F1
ENCODING 241
SWIDTH 306 0
DWIDTH 17 0
BBX 15 31 1 0
BITMAP
1E10
1FF0
1FF0
20E0
0000
00F0
F9F8
FBF8
FFFC
FE7C
FC7C
FC3C
FC3C
F83C
F83C
F83E
F83E
F83E
F83E
F83E
F83E
F83E
F83E
F83E
F83E
F83E
F83E
F83E
F83E
F83E
F83E
ENDCHAR
STARTCHAR 00F2
ENCODING 242
SWIDTH 288 0
DWIDTH 16 0
BBX 14 35 1 0
BITMAP
7C00
3C00
3E00
1E00
0E00
0E00
0600
0700
0000
0780
1FC0
1FE0
3FF0
3CF0
7878
7878
7878
F078
F07C
F07C
F07C
F03C
F03C
F07C
F07C
F07C
F078
7878
7878
7878
3CF0
3FF0
1FE0
0FC0
0780
ENDCHAR
STARTCHAR 00F3
ENCODING 243
SWIDTH 288 0
DWIDTH 16 0
BBX 14 35 1 0
BITMAP
01F0
01F0
01E0
01C0
03C0
0380
0380
0300
0000
0780
1FC0
1FE0
3FF0
3CF0
7878
7878
7878
F078
F07C
F07C
F07C
F03C
F03C
F07C
F07C
F07C
F078
7878
7878
7878
3CF0
3FF0
1FE0
0FC0
0780
ENDCHAR
STARTCHAR 00F4
ENCODING 244
SWIDTH 288 0
DWIDTH 16 0
BBX 14 35 1 0
BITMAP
0780
0780
0F80
0FC0
0FC0
1DC0
1CE0
1CE0
2000
0780
1FC0
1FE0
3FF0
3CF0
7878
7878
7878
F078
F07C
F07C
F07C
F03C
F03C
F07C
F07C
F07C
F078
7878
7878
7878
3CF0
3FF0
1FE0
0FC0
0780
ENDCHAR
STARTCHAR 00F5
ENCODING 245
SWIDTH 288 0
DWIDTH 16 0
BBX 14 31 1 0
BITMAP
1E10
1FF0
1FF0
20E0
0000
0780
1FC0
1FE0
3FF0
3CF0
7878
7878
7878
F078
F07C
F07C
F07C
F03C
F03C
F07C
F07C
F07C
F078
7878
7878
7878
3CF0
3FF0
1FE0
0FC0
0780
ENDCHAR
STARTCHAR 00F6
ENCODING 246
SWIDTH 288 0
DWIDTH 16 0
BBX 14 33 1 0
BITMAP
3870
7CF8
FDF8
FFF8
7CF8
38F0
0000
0780
1FC0
1FE0
3FF0
3CF0
7878
7878
7878
F078
F07C
F07C
F07C
F03C
F03C
F07C
F07C
F07C
F078
7878
7878
7878
3CF0
3FF0
1FE0
0FC0
0780
ENDCHAR
STARTCHAR 00F7
ENCODING 247
SWIDTH 144 0
DWIDTH 8 0
BBX 14 17 -3 11
BITMAP
0380
07C0
07C0
07C0
0380
0000
FFFC
FFFC
FFFC
FFFC
0000
0000
0380
07C0
07C0
07C0
0380
ENDCHAR
STARTCHAR 00F8
ENCODING 248
SWIDTH 288 0
DWIDTH 16 0
BBX 14 32 1 -3
BITMAP
0038
0078
0070
07F0
0FF0
1FF0
3FF0
3CF0
78F8
79F8
79F8
F1F8
F1FC
F3FC
F3BC
F3BC
F3FC
F7FC
F77C
F77C
FF78
7F78
7E78
7E78
7EF0
3FF0
3FE0
1FC0
1F80
3C00
3800
3800
ENDCHAR
STARTCHAR 00F9
ENCODING 249
SWIDTH 306 0
DWIDTH 17 0
BBX 14 35 1 0
BITMAP
3E00
1E00
1E00
0F00
0F00
0700
0300
0380
0000
F03C
F03C
F03C
F03C
F03C
F03C
F03C
F03C
F03C
F03C
F03C
F03C
F03C
F03C
F03C
F03C
F07C
F87C
F87C
F87C
F8FC
F9FC
7FBC
7FBC
3F3C
1E00
ENDCHAR
STARTCHAR 00FA
ENCODING 250
SWIDTH 306 0
DWIDTH 17 0
BBX 14 35 1 0
BITMAP
00F8
01F0
01E0
01E0
01C0
01C0
0380
0380
0000
F03C
F03C
F03C
F03C
F03C
F03C
F03C
F03C
F03C
F03C
F03C
F03C
F03C
F03C
F03C
F03C
F07C
F87C
F87C
F87C
F8FC
F9FC
7FBC
7FBC
3F3C
1E00
ENDCHAR
STARTCHAR 00FB
ENCODING 251
SWIDTH 306 0
DWIDTH 17 0
BBX 14 35 1 0
BITMAP
0380
0780
07C0
0FC0
0EC0
0EE0
1EE0
1CE0
0010
F03C
F03C
F03C
F03C
F03C
F03C
F03C
F03C
F03C
F03C
F03C
F03C
F03C
F03C
F03C
F03C
F07C
F87C
F87C
F87C
F8FC
F9FC
7FBC
7FBC
3F3C
1E00
ENDCHAR
STARTCHAR 00FC
ENCODING 252
SWIDTH 306 0
DWIDTH 17 0
BBX 14 33 1 0
BITMAP
3C78
7EF8
7EFC
7EFC
7EF8
3C78
0000
F03C
F03C
F03C
F03C
F03C
F03C
F03C
F03C
F03C
F03C
F03C
F03C
F03C
F03C
F03C
F03C
F07C
F87C
F87C
F87C
F8FC
F9FC
7FBC
7FBC
3F3C
1E00
ENDCHAR
STARTCHAR 00FD
ENCODING 253
SWIDTH 306 0
DWIDTH 17 0
BBX 14 45 1 -10
BITMAP
01F0
01E0
03E0
03C0
0380
0380
0300
0700
0000
F07C
F07C
F07C
F07C
F07C
F07C
F07C
F07C
F07C
F07C
F07C
F07C
F07C
F07C
F07C
F07C
F07C
F07C
F07C
F0FC
F8FC
79FC
7FFC
7FFC
3F7C
1E7C
007C
007C
007C
007C
2078
38F8
3FF8
7FF0
1FF0
0FC0
ENDCHAR
STARTCHAR 00FE
ENCODING 254
SWIDTH 306 0
DWIDTH 17 0
BBX 16 40 1 -8
BITMAP
F800
F800
F800
F800
F800
F800
F8F0
F9F8
FBFC
FBFC
FE3E
FE1E
FC1E
FC1E
FC1F
FC0F
F80F
F80F
F80F
F80F
F80F
F80F
F80E
F81E
F81E
F81E
FC1C
FC3C
FE7C
FFF8
FFF0
FBE0
F800
F800
F800
F800
F800
F800
F800
F800
ENDCHAR
STARTCHAR 00FF
ENCODING 255
SWIDTH 306 0
DWIDTH 17 0
BBX 14 43 1 -10
BITMAP
3C78
7EFC
7EFC
7EFC
7EFC
3C78
0000
F07C
F07C
F07C
F07C
F07C
F07C
F07C
F07C
F07C
F07C
F07C
F07C
F07C
F07C
F07C
F07C
F07C
F07C
F07C
F0FC
F8FC
79FC
7FFC
7FFC
3F7C
1E7C
007C
007C
007C
007C
2078
38F8
3FF8
7FF0
1FF0
0FC0
ENDCHAR
STARTCHAR 0110
ENCODING 272
SWIDTH 288 0
DWIDTH 16 0
BBX 17 39 -1 0
BITMAP
1FC000
1FF000
1FF800
1FF800
1EFC00
1E7E00
1E3E00
1E1E00
1E1F00
1E0F00
1E0F00
1E0F80
1E0F80
1E0780
1E0780
1E0780
1E0780
FFC780
FFC780
FFC780
FFC780
1E0780
1E0780
1E0780
1E0780
1E0F80
1E0F80
1E0F00
1E0F00
1E1F00
1E1F00
1E3E00
1E7E00
1EFC00
1FFC00
1FF800
1FF000
1FE000
1FC000
ENDCHAR
STARTCHAR 0111
ENCODING 273
SWIDTH 306 0
DWIDTH 17 0
BBX 19 39 0 0
BITMAP
001F00
001F00
001F00
001F00
001F00
00FFE0
00FFE0
00FFE0
00FFE0
001F00
000F00
000F00
000F00
07CF00
0FEF00
1FFF00
1F7F00
3E3F00
3C1F00
381F00
781F00
781F00
781F00
781F00
781F00
701F00
701F00
F01F00
781F00
781F00
781F00
783F00
783F00
7C2F00
3C6F00
3EEF00
3FCF00
1FCF00
0F8F00
ENDCHAR
STARTCHAR 0131
ENCODING 305
SWIDTH 126 0
DWIDTH 7 0
BBX 5 26 1 0
BITMAP
F8
F8
F8
F8
F8
F8
F8
F8
F8
F8
F8
F8
F8
F8
F8
F8
F8
F8
F8
F8
F8
F8
F8
F8
F8
F8
ENDCHAR
STARTCHAR 0141
ENCODING 321
SWIDTH 216 0
DWIDTH 12 0
BBX 14 39 -3 0
BITMAP
0F80
0F80
0F80
0F80
0F80
0F80
0F80
0F80
0F80
0F80
0F80
0F80
0F80
0FC0
0FE0
0FF0
0FF8
0FE0
0FC0
1F80
3F80
7F80
7F80
FF80
3F80
2F80
0F80
0F80
0F80
0F80
0F80
0F80
0F80
0F80
0F80
0FFC
0FFC
0FFC
0FFC
ENDCHAR
STARTCHAR 0142
ENCODING 322
SWIDTH 234 0
DWIDTH 13 0
BBX 13 39 0 0
BITMAP
0F80
0F80
0F80
0F80
0F80
0F80
0F80
0F80
0F80
0F80
0F80
0F80
0F80
0FE0
0FF0
0FF8
0FF0
0FE0
0FC0
0F80
1F80
3F80
7F80
FF80
3F80
2F80
0F80
0F80
0F80
0F80
0F80
0F80
0F80
0F80
0F80
0F80
0F80
0F80
0F80
ENDCHAR
STARTCHAR 0152
ENCODING 338
SWIDTH 414 0
DWIDTH 23 0
BBX 21 39 1 0
BITMAP
07FFF8
1FFFF8
1FFFF8
3FFFF8
3CFC00
78FC00
787C00
787C00
F87C00
F07C00
F07C00
F03C00
F03C00
F03C00
F03C00
F03C00
F03C00
F03C00
F03C00
F03FF0
F03FF0
F03FF0
F03FF0
F03C00
F03C00
F03C00
F03C00
F03C00
F07C00
F07C00
F87C00
787C00
787C00
78FC00
3CFC00
3FFFF8
1FFFF8
1FFFF8
07BFF8
ENDCHAR
STARTCHAR 0153
ENCODING 339
SWIDTH 450 0
DWIDTH 25 0
BBX 24 26 1 0
BITMAP
0781E0
1FC7F8
1FE7FC
3FFFFC
3CFF3E
787E1E
787E1E
787E1E
F07C1E
F07FFE
F07FFE
F07FFE
F03C00
F03C00
F07C00
F07C0F
F07C0F
F07C0F
787C1E
787E1E
787E1E
3CFF3E
3FFFFC
1FE7FC
0FC7F8
0781E0
ENDCHAR
STARTCHAR 0160
ENCODING 352
SWIDTH 216 0
DWIDTH 12 0
BBX 11 50 0 -1
BITMAP
39E0
39C0
1DC0
1DC0
1F80
0F80
0F00
0F00
0700
0000
01E0
0FE0
1FE0
3FE0
7F00
7C00
F800
F000
F000
F000
F000
F000
F800
7800
7C00
7C00
3E00
3E00
1F00
1F00
0F80
0F80
07C0
07C0
03E0
03E0
01E0
01E0
01E0
01E0
01E0
01E0
03E0
03E0
1FE0
7FC0
7F80
7F00
7C00
8000
ENDCHAR
STARTCHAR 0161
ENCODING 353
SWIDTH 252 0
DWIDTH 14 0
BBX 10 35 2 0
BITMAP
F380
7780
7700
3700
3F00
3E00
1E00
1E00
0000
07C0
1FC0
7FC0
FFC0
FC00
F000
F000
F000
F000
F000
7800
7C00
3E00
1F00
0F00
0F80
07C0
03C0
03C0
03C0
07C0
1FC0
FFC0
FF80
FE00
F000
ENDCHAR
STARTCHAR 0178
ENCODING 376
SWIDTH 324 0
DWIDTH 18 0
BBX 16 47 1 0
BITMAP
0830
3E7C
3EFC
7FFE
3EFC
3E7C
0830
0000
F81F
F81F
F81E
781E
781E
781E
783E
7C3C
3C3C
3C3C
3C3C
3C3C
3C78
1E78
1E78
1E78
1E78
1E70
0E70
0FF0
0FF0
0FF0
0FF0
07E0
07E0
07E0
07E0
07E0
03C0
03C0
03C0
03C0
03C0
03C0
03C0
03C0
03C0
03C0
03C0
ENDCHAR
STARTCHAR 017D
ENCODING 381
SWIDTH 270 0
DWIDTH 15 0
BBX 12 49 2 0
BITMAP
73C0
7B80
3B80
3B80
3B00
1F00
1F00
1E00
0E00
0000
FFF0
FFF0
FFF0
FFE0
01E0
03E0
03E0
03E0
03C0
03C0
07C0
07C0
07C0
0780
0780
0F80
0F80
0F80
0F00
0F00
1F00
1F00
1E00
1E00
1E00
3E00
3E00
3C00
3C00
3C00
7C00
7C00
7800
7800
7800
FFE0
FFE0
FFE0
FFE0
ENDCHAR
STARTCHAR 017E
ENCODING 382
SWIDTH 306 0
DWIDTH 17 0
BBX 15 35 1 0
BITMAP
1EF0
0EE0
0EE0
0EE0
06C0
07C0
07C0
0380
0000
7FFE
7FFE
7FFC
7FFC
0078
0078
00F8
00F0
01F0
01E0
01E0
03C0
03C0
0780
0780
0F80
0F00
1F00
1E00
1E00
3C00
3C00
7FFC
7FFC
FFFC
FFFC
ENDCHAR
STARTCHAR 0192
ENCODING 402
SWIDTH 396 0
DWIDTH 22 0
BBX 21 49 0 -9
BITMAP
000018
0001F8
0003F8
0007F8
000FF8
000F80
001F00
001E00
001E00
001E00
003E00
003E00
003C00
003C00
01FFE0
01FFE0
01FFE0
01FFC0
007C00
007C00
007800
007800
007800
007800
007800
007800
00F800
00F800
00F000
00F000
00F000
00F000
00F000
00F000
01F000
01F000
01E000
01E000
01E000
01E000
01E000
03E000
03C000
07C000
1F8000
7F8000
7F0000
FE0000
F80000
ENDCHAR
STARTCHAR 02C6
ENCODING 710
SWIDTH 180 0
DWIDTH 10 0
BBX 8 8 1 27
BITMAP
3C
3C
7C
7E
7E
EE
E7
E7
ENDCHAR
STARTCHAR 02C7
ENCODING 711
SWIDTH 180 0
DWIDTH 10 0
BBX 8 8 1 27
BITMAP
E7
E7
EE
7E
7E
7C
3C
3C
ENDCHAR
STARTCHAR 02D8
ENCODING 728
SWIDTH 216 0
DWIDTH 12 0
BBX 11 6 1 27
BITMAP
C0E0
E0E0
F1C0
7FC0
7F80
1E00
ENDCHAR
STARTCHAR 02D9
ENCODING 729
SWIDTH 126 0
DWIDTH 7 0
BBX 6 6 1 27
BITMAP
70
F8
FC
FC
F8
70
ENDCHAR
STARTCHAR 02DA
ENCODING 730
SWIDTH 180 0
DWIDTH 10 0
BBX 8 9 1 26
BITMAP
10
7C
FE
C7
C3
C7
EF
7E
3C
ENDCHAR
STARTCHAR 02DB
ENCODING 731
SWIDTH 108 0
DWIDTH 6 0
BBX 6 7 0 -6
BITMAP
20
40
C0
CC
F8
F8
70
ENDCHAR
STARTCHAR 02DC
ENCODING 732
SWIDTH 198 0
DWIDTH 11 0
BBX 9 4 1 27
BITMAP
F080
FF80
FF80
8700
ENDCHAR
STARTCHAR 02DD
ENCODING 733
SWIDTH 144 0
DWIDTH 8 0
BBX 12 8 1 27
BITMAP
7DF0
79F0
79E0
F1C0
F3C0
E380
E380
C300
ENDCHAR
STARTCHAR 03BC
ENCODING 956
SWIDTH 306 0
DWIDTH 17 0
BBX 15 33 1 -7
BITMAP
F83E
F83E
F83E
F83E
F83E
F83E
F83E
F83E
F83E
F83E
F83E
F83E
F83E
F83E
F83E
F83E
F83E
F83E
F83E
FC3E
FC3E
FC3E
FE7E
FFFE
FBFE
F9FE
F800
F800
F800
F800
F800
F800
F800
ENDCHAR
STARTCHAR 2013
ENCODING 8211
SWIDTH 216 0
DWIDTH 12 0
BBX 11 4 1 18
BITMAP
FFE0
FFE0
FFE0
FFE0
ENDCHAR
STARTCHAR 2014
ENCODING 8212
SWIDTH 522 0
DWIDTH 29 0
BBX 28 4 1 21
BITMAP
FFFFFFF0
FFFFFFF0
FFFFFFF0
FFFFFFF0
ENDCHAR
STARTCHAR 2018
ENCODING 8216
SWIDTH 144 0
DWIDTH 8 0
BBX 5 9 0 30
BITMAP
30
30
70
70
70
F8
F8
F8
70
ENDCHAR
STARTCHAR 2019
ENCODING 8217
SWIDTH 144 0
DWIDTH 8 0
BBX 5 9 0 30
BITMAP
70
F8
F8
F8
70
70
70
60
60
ENDCHAR
STARTCHAR 201A
ENCODING 8218
SWIDTH 144 0
DWIDTH 8 0
BBX 5 9 1 -9
BITMAP
70
78
F8
78
78
30
30
70
60
ENDCHAR
STARTCHAR 201C
ENCODING 8220
SWIDTH 252 0
DWIDTH 14 0
BBX 11 9 0 30
BITMAP
30C0
30C0
71C0
71C0
71C0
FBE0
FBE0
FBE0
71C0
ENDCHAR
STARTCHAR 201D
ENCODING 8221
SWIDTH 252 0
DWIDTH 14 0
BBX 11 9 0 30
BITMAP
71C0
FBE0
FBE0
FBE0
71C0
71C0
71C0
6180
6180
ENDCHAR
STARTCHAR 201E
ENCODING 8222
SWIDTH 252 0
DWIDTH 14 0
BBX 11 9 2 -9
BITMAP
F1C0
F3C0
FBE0
F3C0
F3C0
71C0
6180
6180
C300
ENDCHAR
STARTCHAR 2020
ENCODING 8224
SWIDTH 270 0
DWIDTH 15 0
BBX 14 31 1 0
BITMAP
0780
0780
0780
0780
0780
0780
FFFC
FFFC
FFFC
FFFC
0780
0780
0780
0780
0780
0780
0780
0780
0780
0780
0780
0780
0780
0780
0780
0780
0780
0780
0780
0780
0780
ENDCHAR
STARTCHAR 2021
ENCODING 8225
SWIDTH 270 0
DWIDTH 15 0
BBX 14 31 1 4
BITMAP
0780
0780
0780
0780
0780
0780
0780
0780
0780
FFFC
FFFC
FFFC
FFFC
0780
0780
0780
0780
0780
FFFC
FFFC
FFFC
FFFC
0780
0780
0780
0780
0780
0780
0780
0780
0780
ENDCHAR
STARTCHAR 2022
ENCODING 8226
SWIDTH 198 0
DWIDTH 11 0
BBX 7 7 2 16
BITMAP
78
FC
FE
FE
FE
FC
78
ENDCHAR
STARTCHAR 2026
ENCODING 8230
SWIDTH 396 0
DWIDTH 22 0
BBX 20 5 1 0
BITMAP
70E0E0
F8F1F0
F9F1F0
F8F1F0
70F0E0
ENDCHAR
STARTCHAR 2030
ENCODING 8240
SWIDTH 666 0
DWIDTH 37 0
BBX 34 39 1 0
BITMAP
1E03C00000
3F03800000
3F03800000
7707800000
7387800000
7387000000
F387000000
F387000000
F387000000
F38F000000
F38F000000
F38E000000
F38E000000
F38E000000
F39E380E00
F39E7C1F00
F39CFE3F80
F39CEE3B80
F39DEE3BC0
73BDCE79C0
73BDCF79C0
7739CF79C0
3F39CF79C0
3F39CF79C0
1E79CF79C0
0079CF79C0
0071CF79C0
0071CF79C0
0071CF79C0
00F1CF79C0
00F1CF79C0
00E1CF79C0
00E1CF79C0
00E1CF39C0
00E1EE3BC0
01E0EE3B80
01E0FE3F80
01C07C1F00
01C0380E00
ENDCHAR
STARTCHAR 2039
ENCODING 8249
SWIDTH 180 0
DWIDTH 10 0
BBX 8 12 1 14
BITMAP
04
0E
1F
3E
7C
F8
F8
7C
3E
1F
0E
04
ENDCHAR
STARTCHAR 203A
ENCODING 8250
SWIDTH 180 0
DWIDTH 10 0
BBX 9 12 1 14
BITMAP
2000
7000
F800
7C00
3E00
1F00
1F80
3E00
7C00
F800
7000
2000
ENDCHAR
STARTCHAR 2044
ENCODING 8260
SWIDTH 216 0
DWIDTH 12 0
BBX 10 39 1 0
BITMAP
01C0
01C0
01C0
03C0
03C0
0380
0380
0380
0780
0780
0700
0700
0700
0F00
0F00
0E00
0E00
0E00
1E00
1E00
1C00
1C00
1C00
1C00
3C00
3C00
3800
3800
3800
7800
7800
7000
7000
7000
F000
F000
E000
E000
E000
ENDCHAR
STARTCHAR 2074
ENCODING 8308
SWIDTH 216 0
DWIDTH 12 0
BBX 10 25 1 14
BITMAP
0780
0780
0780
0F80
0F80
0F80
1F80
1F80
1F80
1F80
3F80
3B80
3B80
7B80
7380
7380
F380
F380
FFC0
FFC0
FFC0
0380
0380
0380
0380
ENDCHAR
STARTCHAR 20AC
ENCODING 8364
SWIDTH 324 0
DWIDTH 18 0
BBX 17 39 1 0
BITMAP
00F000
03FC00
03FC00
07FE00
079E00
0F0F00
0F0F00
0F0F00
1F0F80
1E0F80
1E0F80
1E0780
1E0000
1E0000
1E0000
FFE000
FFE000
FFE000
FFE000
1E0000
1E0000
FFE000
FFE000
FFE000
FFE000
1E0000
1E0000
1E0000
1E0F80
1E0F80
1F0F80
0F0F00
0F0F00
0F0F00
0F9F00
07FE00
03FC00
03FC00
00F000
ENDCHAR
STARTCHAR 2122
ENCODING 8482
SWIDTH 396 0
DWIDTH 22 0
BBX 20 19 0 20
BITMAP
FF7070
FF7070
1C70F0
1C70F0
1C78F0
1C78F0
1C78F0
1C79F0
1C7DF0
1C7DF0
1C7DF0
1C7FF0
1C7F70
1C7F70
1C7770
1C7770
1C7770
1C7670
1C7070
ENDCHAR
STARTCHAR 2212
ENCODING 8722
SWIDTH 288 0
DWIDTH 16 0
BBX 14 4 1 18
BITMAP
FFFC
FFFC
FFFC
FFFC
ENDCHAR
STARTCHAR FB01
ENCODING 64257
SWIDTH 324 0
DWIDTH 18 0
BBX 19 40 -1 0
BITMAP
001800
01F800
03F800
07F800
0FF800
0F8000
0F0380
1F07C0
1E07C0
1E07E0
1E07C0
1E0380
1E0000
1E0000
FFFFC0
FFFFC0
FFFFC0
FFFFC0
1E07C0
1E07C0
1E07C0
1E07C0
1E07C0
1E07C0
1E07C0
1E07C0
1E07C0
1E07C0
1E07C0
1E07C0
1E07C0
1E07C0
1E07C0
1E07C0
1E07C0
1E07C0
1E07C0
1E07C0
1E07C0
1E07C0
ENDCHAR
STARTCHAR FB02
ENCODING 64258
SWIDTH 324 0
DWIDTH 18 0
BBX 18 39 -1 0
BITMAP
00FFC0
03FFC0
07FFC0
07FFC0
0F87C0
0F07C0
1F07C0
1E07C0
1E07C0
1E07C0
1E07C0
1E07C0
1E07C0
FFF7C0
FFF7C0
FFF7C0
FFF7C0
1E07C0
1E07C0
1E07C0
1E07C0
1E07C0
1E07C0
1E07C0
1E07C0
1E07C0
1E07C0
1E07C0
1E07C0
1E07C0
1E07C0
1E07C0
1E07C0
1E07C0
1E07C0
1E07C0
1E07C0
1E07C0
1E07C0
ENDCHAR
ENDFONT
